M48
; DRILL file {KiCad 9.0.3} date 2025-10-02T22:29:35+0500
; FORMAT={-:-/ absolute / metric / decimal}
; #@! TF.CreationDate,2025-10-02T22:29:35+05:00
; #@! TF.GenerationSoftware,Kicad,Pcbnew,9.0.3
; #@! TF.FileFunction,Plated,1,2,PTH
FMAT,2
METRIC
; #@! TA.AperFunction,Plated,PTH,ViaDrill
T1C0.300
; #@! TA.AperFunction,Plated,PTH,ComponentDrill
T2C0.500
; #@! TA.AperFunction,Plated,PTH,ComponentDrill
T3C0.800
; #@! TA.AperFunction,Plated,PTH,ComponentDrill
T4C1.000
; #@! TA.AperFunction,Plated,PTH,ComponentDrill
T5C1.100
; #@! TA.AperFunction,Plated,PTH,ComponentDrill
T6C1.230
; #@! TA.AperFunction,Plated,PTH,ComponentDrill
T7C1.300
; #@! TA.AperFunction,Plated,PTH,ComponentDrill
T8C1.700
; #@! TA.AperFunction,Plated,PTH,ComponentDrill
T9C4.500
%
G90
G05
T1
X96.0Y-95.18
X98.66Y-92.06
X99.04Y-69.31
X101.25Y-107.625
X103.239Y-68.24
X105.01Y-86.79
X105.47Y-70.42
X105.5Y-107.625
X106.704Y-87.974
X108.46Y-84.92
X110.05Y-78.03
X110.16Y-70.43
X111.75Y-107.625
X113.32Y-70.43
X113.5Y-86.01
X115.25Y-107.625
X115.5Y-84.89
X116.52Y-79.27
X118.57Y-70.45
X119.31Y-86.527
X126.59Y-87.29
X131.01Y-81.899
X131.01Y-85.15
X137.0Y-112.18
X137.01Y-63.89
X137.01Y-66.45
X137.01Y-81.17
X137.02Y-84.78
X137.02Y-106.53
X180.24Y-73.03
X182.69Y-122.72
X183.44Y-146.54
X183.79Y-101.68
X184.02Y-94.68
X186.51Y-73.05
X190.33Y-94.63
X190.5Y-147.29
X190.62Y-122.78
X190.86Y-108.72
X238.264Y-110.12
X238.264Y-117.62
X239.514Y-115.37
X239.514Y-117.87
T2
X108.0Y-103.875
X116.0Y-73.375
X117.0Y-103.875
X118.74Y-73.39
X126.0Y-103.875
X128.93Y-86.11
X132.8Y-86.16
X140.34Y-110.515
X140.42Y-115.965
X140.45Y-139.235
X141.94Y-84.62
X149.38Y-90.25
X149.45Y-145.985
T3
X87.19Y-139.605
X87.31Y-120.065
X87.31Y-122.605
X87.31Y-125.145
X87.31Y-127.685
X87.38Y-146.855
X87.38Y-154.105
X88.26Y-112.87
X91.75Y-81.49
X91.75Y-86.49
X93.26Y-92.8
X93.26Y-97.8
X93.26Y-112.87
X93.51Y-60.82
X94.81Y-139.605
X94.93Y-120.065
X94.93Y-122.605
X94.93Y-125.145
X94.93Y-127.685
X95.0Y-146.855
X95.0Y-154.105
X97.26Y-83.99
X97.26Y-88.87
X97.92Y-76.46
X98.51Y-60.82
X98.61Y-102.31
X98.67Y-94.91
X101.31Y-89.31
X101.76Y-139.835
X101.76Y-147.085
X101.76Y-154.335
X101.88Y-120.295
X101.88Y-122.835
X101.88Y-125.375
X101.88Y-127.915
X102.68Y-80.73
X102.68Y-85.73
X103.61Y-102.31
X103.67Y-94.91
X104.46Y-73.62
X105.54Y-76.46
X106.31Y-89.31
X108.0Y-94.875
X108.0Y-99.875
X108.5Y-112.875
X109.38Y-139.835
X109.38Y-147.085
X109.38Y-154.335
X109.46Y-73.62
X109.5Y-120.295
X109.5Y-122.835
X109.5Y-125.375
X109.5Y-127.915
X113.5Y-112.875
X116.26Y-139.605
X116.26Y-146.855
X116.26Y-154.105
X116.38Y-120.295
X116.38Y-122.835
X116.38Y-125.375
X116.38Y-127.915
X117.0Y-94.875
X117.0Y-99.875
X117.74Y-90.723
X119.75Y-112.875
X120.61Y-85.49
X120.67Y-81.54
X120.76Y-77.67
X122.74Y-90.723
X123.88Y-139.605
X123.88Y-146.855
X123.88Y-154.105
X124.0Y-120.295
X124.0Y-122.835
X124.0Y-125.375
X124.0Y-127.915
X124.75Y-112.875
X124.91Y-90.71
X125.61Y-85.49
X125.67Y-81.54
X125.76Y-77.67
X126.0Y-94.875
X126.0Y-99.875
X129.91Y-90.71
X144.04Y-142.865
X144.22Y-86.83
X144.22Y-116.035
X144.41Y-134.755
X144.44Y-105.195
X144.44Y-110.485
X144.49Y-139.085
X144.67Y-81.49
X144.74Y-75.88
X149.04Y-142.865
X149.22Y-86.83
X149.22Y-116.035
X149.41Y-134.755
X149.44Y-105.195
X149.44Y-110.485
X149.49Y-139.085
X149.67Y-81.49
X149.74Y-75.88
X151.835Y-104.34
X151.835Y-106.88
X151.835Y-109.42
X151.835Y-111.96
X151.835Y-114.5
X151.835Y-117.04
X151.835Y-119.58
X151.87Y-132.45
X151.87Y-134.99
X151.87Y-137.53
X151.87Y-140.07
X151.87Y-142.61
X151.87Y-145.15
X151.87Y-147.69
X152.185Y-76.255
X152.185Y-78.795
X152.185Y-81.335
X152.185Y-83.875
X152.185Y-86.415
X152.185Y-88.955
X152.185Y-91.495
X159.455Y-104.34
X159.455Y-106.88
X159.455Y-109.42
X159.455Y-111.96
X159.455Y-114.5
X159.455Y-117.04
X159.455Y-119.58
X159.47Y-100.84
X159.48Y-122.74
X159.49Y-132.45
X159.49Y-134.99
X159.49Y-137.53
X159.49Y-140.07
X159.49Y-142.61
X159.49Y-145.15
X159.49Y-147.69
X159.5Y-128.235
X159.805Y-76.255
X159.805Y-78.795
X159.805Y-81.335
X159.805Y-83.875
X159.805Y-86.415
X159.805Y-88.955
X159.805Y-91.495
X159.83Y-94.655
X159.84Y-73.01
X161.83Y-107.605
X162.32Y-144.175
X162.35Y-139.815
X162.36Y-78.83
X162.75Y-135.015
X163.5Y-88.375
X163.55Y-84.22
X163.65Y-116.96
X166.83Y-107.605
X167.09Y-100.84
X167.1Y-122.74
X167.12Y-128.235
X167.32Y-144.175
X167.35Y-139.815
X167.36Y-78.83
X167.45Y-94.655
X167.46Y-73.01
X167.75Y-135.015
X168.18Y-147.7
X168.37Y-51.87
X168.37Y-56.87
X168.5Y-88.375
X168.55Y-84.22
X168.65Y-116.96
X168.68Y-38.19
X168.68Y-41.69
X169.41Y-107.595
X169.88Y-78.86
X170.14Y-135.105
X171.15Y-139.915
X172.07Y-84.16
X172.15Y-116.96
X174.94Y-111.785
X175.8Y-147.7
X176.355Y-51.87
X176.355Y-56.87
X177.03Y-107.595
X177.15Y-116.96
X177.5Y-78.86
X177.76Y-135.105
X178.77Y-139.915
X179.69Y-84.16
X182.56Y-111.785
X184.61Y-51.87
X184.61Y-56.87
X211.764Y-151.87
X212.014Y-87.62
X212.764Y-119.87
X216.764Y-151.87
X217.014Y-87.62
X217.764Y-119.87
T4
X64.06Y-63.51
X64.06Y-104.15
X64.07Y-116.3
X64.07Y-156.94
X81.84Y-63.51
X81.84Y-104.15
X81.85Y-116.3
X81.85Y-156.94
X120.71Y-57.46
X120.71Y-60.0
X123.25Y-57.46
X123.25Y-60.0
X125.79Y-57.46
X125.79Y-60.0
X128.33Y-57.46
X128.33Y-60.0
X130.87Y-57.46
X130.87Y-60.0
X181.79Y-37.68
X181.79Y-42.68
T5
X92.51Y-67.32
X92.51Y-71.82
X99.01Y-67.32
X99.01Y-71.82
T6
X195.014Y-76.04
X195.014Y-78.58
X195.014Y-81.12
X195.014Y-92.34
X195.014Y-94.88
X195.014Y-97.42
X195.014Y-108.64
X195.014Y-111.18
X195.014Y-113.72
X195.014Y-124.94
X195.014Y-127.48
X195.014Y-130.02
X195.014Y-141.24
X195.014Y-143.78
X195.014Y-146.32
X195.014Y-157.54
X195.014Y-160.08
X195.014Y-162.62
T7
X233.014Y-106.62
X233.014Y-111.62
X233.014Y-116.62
T8
X198.97Y-37.67
X198.97Y-44.43
X198.97Y-51.71
X198.97Y-58.47
T9
X223.25Y-46.65
X223.25Y-53.85
M30
