%TF.GenerationSoftware,KiCad,Pcbnew,9.0.3*%
%TF.CreationDate,2025-10-02T21:54:24+05:00*%
%TF.ProjectId,Schematic,53636865-6d61-4746-9963-2e6b69636164,rev?*%
%TF.SameCoordinates,Original*%
%TF.FileFunction,Copper,L1,Top*%
%TF.FilePolarity,Positive*%
%FSLAX46Y46*%
G04 Gerber Fmt 4.6, Leading zero omitted, Abs format (unit mm)*
G04 Created by KiCad (PCBNEW 9.0.3) date 2025-10-02 21:54:24*
%MOMM*%
%LPD*%
G01*
G04 APERTURE LIST*
G04 Aperture macros list*
%AMRoundRect*
0 Rectangle with rounded corners*
0 $1 Rounding radius*
0 $2 $3 $4 $5 $6 $7 $8 $9 X,Y pos of 4 corners*
0 Add a 4 corners polygon primitive as box body*
4,1,4,$2,$3,$4,$5,$6,$7,$8,$9,$2,$3,0*
0 Add four circle primitives for the rounded corners*
1,1,$1+$1,$2,$3*
1,1,$1+$1,$4,$5*
1,1,$1+$1,$6,$7*
1,1,$1+$1,$8,$9*
0 Add four rect primitives between the rounded corners*
20,1,$1+$1,$2,$3,$4,$5,0*
20,1,$1+$1,$4,$5,$6,$7,0*
20,1,$1+$1,$6,$7,$8,$9,0*
20,1,$1+$1,$8,$9,$2,$3,0*%
G04 Aperture macros list end*
%TA.AperFunction,ComponentPad*%
%ADD10C,1.600000*%
%TD*%
%TA.AperFunction,ComponentPad*%
%ADD11RoundRect,0.675000X0.675000X-0.675000X0.675000X0.675000X-0.675000X0.675000X-0.675000X-0.675000X0*%
%TD*%
%TA.AperFunction,ComponentPad*%
%ADD12C,2.700000*%
%TD*%
%TA.AperFunction,ComponentPad*%
%ADD13R,1.700000X1.700000*%
%TD*%
%TA.AperFunction,ComponentPad*%
%ADD14C,1.700000*%
%TD*%
%TA.AperFunction,ComponentPad*%
%ADD15C,1.500000*%
%TD*%
%TA.AperFunction,ComponentPad*%
%ADD16RoundRect,0.250000X-0.550000X-0.550000X0.550000X-0.550000X0.550000X0.550000X-0.550000X0.550000X0*%
%TD*%
%TA.AperFunction,ComponentPad*%
%ADD17R,0.850000X0.850000*%
%TD*%
%TA.AperFunction,ComponentPad*%
%ADD18R,1.850000X1.850000*%
%TD*%
%TA.AperFunction,ComponentPad*%
%ADD19C,1.850000*%
%TD*%
%TA.AperFunction,ComponentPad*%
%ADD20R,2.540000X2.540000*%
%TD*%
%TA.AperFunction,ComponentPad*%
%ADD21C,2.540000*%
%TD*%
%TA.AperFunction,ComponentPad*%
%ADD22RoundRect,0.250000X0.550000X0.550000X-0.550000X0.550000X-0.550000X-0.550000X0.550000X-0.550000X0*%
%TD*%
%TA.AperFunction,ComponentPad*%
%ADD23RoundRect,0.250000X-0.550000X0.550000X-0.550000X-0.550000X0.550000X-0.550000X0.550000X0.550000X0*%
%TD*%
%TA.AperFunction,ComponentPad*%
%ADD24RoundRect,0.250000X-0.750000X0.750000X-0.750000X-0.750000X0.750000X-0.750000X0.750000X0.750000X0*%
%TD*%
%TA.AperFunction,ComponentPad*%
%ADD25C,2.000000*%
%TD*%
%TA.AperFunction,SMDPad,CuDef*%
%ADD26RoundRect,0.075000X0.075000X-0.700000X0.075000X0.700000X-0.075000X0.700000X-0.075000X-0.700000X0*%
%TD*%
%TA.AperFunction,SMDPad,CuDef*%
%ADD27RoundRect,0.075000X0.700000X-0.075000X0.700000X0.075000X-0.700000X0.075000X-0.700000X-0.075000X0*%
%TD*%
%TA.AperFunction,ComponentPad*%
%ADD28RoundRect,0.250001X-1.149999X1.149999X-1.149999X-1.149999X1.149999X-1.149999X1.149999X1.149999X0*%
%TD*%
%TA.AperFunction,ComponentPad*%
%ADD29C,2.800000*%
%TD*%
%TA.AperFunction,ComponentPad*%
%ADD30RoundRect,1.500000X-1.500000X1.500000X-1.500000X-1.500000X1.500000X-1.500000X1.500000X1.500000X0*%
%TD*%
%TA.AperFunction,ComponentPad*%
%ADD31C,6.000000*%
%TD*%
%TA.AperFunction,ViaPad*%
%ADD32C,0.600000*%
%TD*%
%TA.AperFunction,Conductor*%
%ADD33C,5.000000*%
%TD*%
%TA.AperFunction,Conductor*%
%ADD34C,0.500000*%
%TD*%
%TA.AperFunction,Conductor*%
%ADD35C,0.200000*%
%TD*%
%TA.AperFunction,Conductor*%
%ADD36C,1.500000*%
%TD*%
%TA.AperFunction,Conductor*%
%ADD37C,0.250000*%
%TD*%
G04 APERTURE END LIST*
D10*
%TO.P,C44,2*%
%TO.N,+3.3V*%
X122740239Y-90723249D03*
%TO.P,C44,1*%
%TO.N,GND*%
X117740239Y-90723249D03*
%TD*%
D11*
%TO.P,F4,1*%
%TO.N,Net-(BT1-+)*%
X198970000Y-58470000D03*
X198970000Y-51710000D03*
D12*
%TO.P,F4,2*%
%TO.N,+12V*%
X198970000Y-44430000D03*
X198970000Y-37670000D03*
%TD*%
D10*
%TO.P,R1,1*%
%TO.N,Net-(D5-A)*%
X179690000Y-84160000D03*
%TO.P,R1,2*%
%TO.N,+12V*%
X172070000Y-84160000D03*
%TD*%
D13*
%TO.P,J2,1,Pin_1*%
%TO.N,+3.3V*%
X130870000Y-57460000D03*
D14*
%TO.P,J2,2,Pin_2*%
%TO.N,SWDIO*%
X130870000Y-60000000D03*
%TO.P,J2,3,Pin_3*%
%TO.N,GND*%
X128330000Y-57460000D03*
%TO.P,J2,4,Pin_4*%
%TO.N,SWCLK*%
X128330000Y-60000000D03*
%TO.P,J2,5,Pin_5*%
%TO.N,GND*%
X125790000Y-57460000D03*
%TO.P,J2,6,Pin_6*%
%TO.N,SWO*%
X125790000Y-60000000D03*
%TO.P,J2,7,Pin_7*%
%TO.N,unconnected-(J2-Pin_7-Pad7)*%
X123250000Y-57460000D03*
%TO.P,J2,8,Pin_8*%
%TO.N,unconnected-(J2-Pin_8-Pad8)*%
X123250000Y-60000000D03*
%TO.P,J2,9,Pin_9*%
%TO.N,GND*%
X120710000Y-57460000D03*
%TO.P,J2,10,Pin_10*%
%TO.N,NRST*%
X120710000Y-60000000D03*
%TD*%
D15*
%TO.P,Y1,1,1*%
%TO.N,OSC_OUT*%
X97260000Y-88870000D03*
%TO.P,Y1,2,2*%
%TO.N,OSC_IN*%
X97260000Y-83990000D03*
%TD*%
D10*
%TO.P,C4,1*%
%TO.N,PC0_ADC*%
X108000000Y-94875000D03*
%TO.P,C4,2*%
%TO.N,GND*%
X108000000Y-99875000D03*
%TD*%
%TO.P,C42,1*%
%TO.N,PA1*%
X149220000Y-116035000D03*
%TO.P,C42,2*%
%TO.N,GND*%
X144220000Y-116035000D03*
%TD*%
D16*
%TO.P,D5,1,K*%
%TO.N,Net-(D5-K)*%
X169880000Y-78860000D03*
D10*
%TO.P,D5,2,A*%
%TO.N,Net-(D5-A)*%
X177500000Y-78860000D03*
%TD*%
%TO.P,R4,1*%
%TO.N,PhaseA*%
X123880000Y-154105000D03*
%TO.P,R4,2*%
%TO.N,Net-(U5A-+)*%
X116260000Y-154105000D03*
%TD*%
%TO.P,R12,1*%
%TO.N,Net-(U5A-+)*%
X116260000Y-139605000D03*
%TO.P,R12,2*%
%TO.N,Net-(U5A--)*%
X123880000Y-139605000D03*
%TD*%
%TO.P,C33,1*%
%TO.N,Net-(U8C-V+)*%
X93260000Y-112870000D03*
%TO.P,C33,2*%
%TO.N,+3.3V*%
X88260000Y-112870000D03*
%TD*%
%TO.P,R14,1*%
%TO.N,Net-(Q1-Pad1)*%
X167450000Y-94655000D03*
%TO.P,R14,2*%
%TO.N,Net-(U1-LO)*%
X159830000Y-94655000D03*
%TD*%
%TO.P,R6,1*%
%TO.N,PhaseC*%
X95000000Y-154105000D03*
%TO.P,R6,2*%
%TO.N,Net-(U8A-+)*%
X87380000Y-154105000D03*
%TD*%
%TO.P,C6,1*%
%TO.N,PC2_ADC*%
X126000000Y-94875000D03*
%TO.P,C6,2*%
%TO.N,GND*%
X126000000Y-99875000D03*
%TD*%
%TO.P,C7,1*%
%TO.N,GND*%
X144740000Y-75880000D03*
%TO.P,C7,2*%
%TO.N,+5V*%
X149740000Y-75880000D03*
%TD*%
D17*
%TO.P,J9,1,Pin_1*%
%TO.N,PA2_TX*%
X132800000Y-86160000D03*
%TD*%
D10*
%TO.P,C28,1*%
%TO.N,+3.3V*%
X98610000Y-102310000D03*
%TO.P,C28,2*%
%TO.N,GND*%
X103610000Y-102310000D03*
%TD*%
%TO.P,R7,1*%
%TO.N,Net-(U8A-+)*%
X87380000Y-146855000D03*
%TO.P,R7,2*%
%TO.N,GND*%
X95000000Y-146855000D03*
%TD*%
%TO.P,R16,1*%
%TO.N,Net-(Q4-Pad1)*%
X167100000Y-122740000D03*
%TO.P,R16,2*%
%TO.N,Net-(U2-LO)*%
X159480000Y-122740000D03*
%TD*%
D18*
%TO.P,Q3,1*%
%TO.N,Net-(Q3-Pad1)*%
X195014000Y-113720000D03*
D19*
%TO.P,Q3,2*%
%TO.N,+12V*%
X195014000Y-111180000D03*
%TO.P,Q3,3*%
%TO.N,PhaseB*%
X195014000Y-108640000D03*
%TD*%
D10*
%TO.P,C41,1*%
%TO.N,GND*%
X144670000Y-81490000D03*
%TO.P,C41,2*%
%TO.N,PA6*%
X149670000Y-81490000D03*
%TD*%
%TO.P,R2,1*%
%TO.N,Net-(D1-A)*%
X182560000Y-111785000D03*
%TO.P,R2,2*%
%TO.N,+12V*%
X174940000Y-111785000D03*
%TD*%
D20*
%TO.P,U6,1,Vin*%
%TO.N,+12V*%
X64070000Y-156940000D03*
D21*
%TO.P,U6,2,GND*%
%TO.N,GND*%
X81850000Y-156940000D03*
%TO.P,U6,3,GND*%
X81850000Y-116300000D03*
%TO.P,U6,4,Vout*%
%TO.N,+3.3V*%
X64070000Y-116300000D03*
%TD*%
D10*
%TO.P,C18,1*%
%TO.N,+12V*%
X168370000Y-51870000D03*
%TO.P,C18,2*%
%TO.N,GND*%
X168370000Y-56870000D03*
%TD*%
%TO.P,C35,1*%
%TO.N,GND*%
X91750000Y-86490000D03*
%TO.P,C35,2*%
%TO.N,OSC_IN*%
X91750000Y-81490000D03*
%TD*%
D22*
%TO.P,U3,1,LO*%
%TO.N,Net-(U3-LO)*%
X159490000Y-147690000D03*
D10*
%TO.P,U3,2,COM*%
%TO.N,GND*%
X159490000Y-145150000D03*
%TO.P,U3,3,VCC*%
%TO.N,+12V*%
X159490000Y-142610000D03*
%TO.P,U3,4,NC*%
%TO.N,unconnected-(U3-NC-Pad4)*%
X159490000Y-140070000D03*
%TO.P,U3,5,VS*%
%TO.N,Net-(U3-VS)*%
X159490000Y-137530000D03*
%TO.P,U3,6,VB*%
%TO.N,Net-(D2-K)*%
X159490000Y-134990000D03*
%TO.P,U3,7,HO*%
%TO.N,Net-(U3-HO)*%
X159490000Y-132450000D03*
%TO.P,U3,8,NC*%
%TO.N,unconnected-(U3-NC-Pad8)*%
X151870000Y-132450000D03*
%TO.P,U3,9,VDD*%
%TO.N,+5V*%
X151870000Y-134990000D03*
%TO.P,U3,10,HIN*%
%TO.N,PA8*%
X151870000Y-137530000D03*
%TO.P,U3,11,SD*%
%TO.N,GND*%
X151870000Y-140070000D03*
%TO.P,U3,12,LIN*%
%TO.N,PA9*%
X151870000Y-142610000D03*
%TO.P,U3,13,VSS*%
%TO.N,GND*%
X151870000Y-145150000D03*
%TO.P,U3,14,NC*%
%TO.N,unconnected-(U3-NC-Pad14)*%
X151870000Y-147690000D03*
%TD*%
%TO.P,C16,1*%
%TO.N,+12V*%
X212764000Y-119870000D03*
%TO.P,C16,2*%
%TO.N,GND*%
X217764000Y-119870000D03*
%TD*%
D23*
%TO.P,C17,1*%
%TO.N,+12V*%
X168680000Y-38190000D03*
D10*
%TO.P,C17,2*%
%TO.N,GND*%
X168680000Y-41690000D03*
%TD*%
%TO.P,C14,1*%
%TO.N,+12V*%
X211764000Y-151870000D03*
%TO.P,C14,2*%
%TO.N,GND*%
X216764000Y-151870000D03*
%TD*%
%TO.P,C29,1*%
%TO.N,+3.3V*%
X120760000Y-77670000D03*
%TO.P,C29,2*%
%TO.N,GND*%
X125760000Y-77670000D03*
%TD*%
D17*
%TO.P,J3,1,Pin_1*%
%TO.N,PC0_ADC*%
X108000000Y-103875000D03*
%TD*%
D10*
%TO.P,C32,1*%
%TO.N,GND*%
X120670000Y-81540000D03*
%TO.P,C32,2*%
%TO.N,Net-(U4-VCAP1)*%
X125670000Y-81540000D03*
%TD*%
D16*
%TO.P,U5,1*%
%TO.N,PC2_ADC*%
X116380000Y-120295000D03*
D10*
%TO.P,U5,2,-*%
%TO.N,Net-(U5A--)*%
X116380000Y-122835000D03*
%TO.P,U5,3,+*%
%TO.N,Net-(U5A-+)*%
X116380000Y-125375000D03*
%TO.P,U5,4,V-*%
%TO.N,GND*%
X116380000Y-127915000D03*
%TO.P,U5,5*%
%TO.N,N/C*%
X124000000Y-127915000D03*
%TO.P,U5,6*%
X124000000Y-125375000D03*
%TO.P,U5,7*%
X124000000Y-122835000D03*
%TO.P,U5,8,V+*%
%TO.N,Net-(U5C-V+)*%
X124000000Y-120295000D03*
%TD*%
D24*
%TO.P,C13,1*%
%TO.N,+12V*%
X181790000Y-37680000D03*
D25*
%TO.P,C13,2*%
%TO.N,GND*%
X181790000Y-42680000D03*
%TD*%
D10*
%TO.P,C23,1*%
%TO.N,+12V*%
X163650000Y-116960000D03*
%TO.P,C23,2*%
%TO.N,GND*%
X168650000Y-116960000D03*
%TD*%
D20*
%TO.P,U9,1,Vin*%
%TO.N,+12V*%
X64060000Y-104150000D03*
D21*
%TO.P,U9,2,GND*%
%TO.N,GND*%
X81840000Y-104150000D03*
%TO.P,U9,3,GND*%
X81840000Y-63510000D03*
%TO.P,U9,4,Vout*%
%TO.N,+5V*%
X64060000Y-63510000D03*
%TD*%
D17*
%TO.P,J13,1,Pin_1*%
%TO.N,PA8*%
X140450000Y-139235000D03*
%TD*%
D10*
%TO.P,C30,1*%
%TO.N,+3.3V*%
X109460000Y-73620000D03*
%TO.P,C30,2*%
%TO.N,GND*%
X104460000Y-73620000D03*
%TD*%
D16*
%TO.P,D1,1,K*%
%TO.N,Net-(D1-K)*%
X169410000Y-107595000D03*
D10*
%TO.P,D1,2,A*%
%TO.N,Net-(D1-A)*%
X177030000Y-107595000D03*
%TD*%
D17*
%TO.P,J10,1,Pin_1*%
%TO.N,PA3_RX*%
X128930000Y-86110000D03*
%TD*%
D10*
%TO.P,C21,1*%
%TO.N,PA9*%
X149040000Y-142865000D03*
%TO.P,C21,2*%
%TO.N,GND*%
X144040000Y-142865000D03*
%TD*%
D16*
%TO.P,D2,1,K*%
%TO.N,Net-(D2-K)*%
X170140000Y-135105000D03*
D10*
%TO.P,D2,2,A*%
%TO.N,Net-(D2-A)*%
X177760000Y-135105000D03*
%TD*%
%TO.P,C34,1*%
%TO.N,NRST*%
X98510000Y-60820000D03*
%TO.P,C34,2*%
%TO.N,GND*%
X93510000Y-60820000D03*
%TD*%
D16*
%TO.P,U8,1*%
%TO.N,PC0_ADC*%
X87310000Y-120065000D03*
D10*
%TO.P,U8,2,-*%
%TO.N,Net-(U5A--)*%
X87310000Y-122605000D03*
%TO.P,U8,3,+*%
%TO.N,Net-(U8A-+)*%
X87310000Y-125145000D03*
%TO.P,U8,4,V-*%
%TO.N,GND*%
X87310000Y-127685000D03*
%TO.P,U8,5*%
%TO.N,N/C*%
X94930000Y-127685000D03*
%TO.P,U8,6*%
X94930000Y-125145000D03*
%TO.P,U8,7*%
X94930000Y-122605000D03*
%TO.P,U8,8,V+*%
%TO.N,Net-(U8C-V+)*%
X94930000Y-120065000D03*
%TD*%
%TO.P,R9,1*%
%TO.N,Net-(U5A-+)*%
X116260000Y-146855000D03*
%TO.P,R9,2*%
%TO.N,GND*%
X123880000Y-146855000D03*
%TD*%
D18*
%TO.P,Q1,1*%
%TO.N,Net-(Q1-Pad1)*%
X195014000Y-97420000D03*
D19*
%TO.P,Q1,2*%
%TO.N,PhaseA*%
X195014000Y-94880000D03*
%TO.P,Q1,3*%
%TO.N,GND*%
X195014000Y-92340000D03*
%TD*%
D10*
%TO.P,R17,1*%
%TO.N,Net-(Q6-Pad1)*%
X167120000Y-128235000D03*
%TO.P,R17,2*%
%TO.N,Net-(U3-HO)*%
X159500000Y-128235000D03*
%TD*%
%TO.P,C25,1*%
%TO.N,+3.3V*%
X102680000Y-80730000D03*
%TO.P,C25,2*%
%TO.N,GND*%
X102680000Y-85730000D03*
%TD*%
D22*
%TO.P,U2,1,LO*%
%TO.N,Net-(U2-LO)*%
X159455000Y-119580000D03*
D10*
%TO.P,U2,2,COM*%
%TO.N,GND*%
X159455000Y-117040000D03*
%TO.P,U2,3,VCC*%
%TO.N,+12V*%
X159455000Y-114500000D03*
%TO.P,U2,4,NC*%
%TO.N,unconnected-(U2-NC-Pad4)*%
X159455000Y-111960000D03*
%TO.P,U2,5,VS*%
%TO.N,Net-(U2-VS)*%
X159455000Y-109420000D03*
%TO.P,U2,6,VB*%
%TO.N,Net-(D1-K)*%
X159455000Y-106880000D03*
%TO.P,U2,7,HO*%
%TO.N,Net-(U2-HO)*%
X159455000Y-104340000D03*
%TO.P,U2,8,NC*%
%TO.N,unconnected-(U2-NC-Pad8)*%
X151835000Y-104340000D03*
%TO.P,U2,9,VDD*%
%TO.N,+5V*%
X151835000Y-106880000D03*
%TO.P,U2,10,HIN*%
%TO.N,PA0*%
X151835000Y-109420000D03*
%TO.P,U2,11,SD*%
%TO.N,GND*%
X151835000Y-111960000D03*
%TO.P,U2,12,LIN*%
%TO.N,PA1*%
X151835000Y-114500000D03*
%TO.P,U2,13,VSS*%
%TO.N,GND*%
X151835000Y-117040000D03*
%TO.P,U2,14,NC*%
%TO.N,unconnected-(U2-NC-Pad14)*%
X151835000Y-119580000D03*
%TD*%
%TO.P,C26,1*%
%TO.N,+3.3V*%
X106310000Y-89310000D03*
%TO.P,C26,2*%
%TO.N,GND*%
X101310000Y-89310000D03*
%TD*%
D17*
%TO.P,J5,1,Pin_1*%
%TO.N,PC1_ADC*%
X117000000Y-103875000D03*
%TD*%
D10*
%TO.P,R10,1*%
%TO.N,Net-(U8A-+)*%
X87190000Y-139605000D03*
%TO.P,R10,2*%
%TO.N,Net-(U5A--)*%
X94810000Y-139605000D03*
%TD*%
%TO.P,R20,1*%
%TO.N,Net-(U4-BOOT0)*%
X105540000Y-76460000D03*
%TO.P,R20,2*%
%TO.N,GND*%
X97920000Y-76460000D03*
%TD*%
D17*
%TO.P,J15,1,Pin_1*%
%TO.N,PA1*%
X140420000Y-115965000D03*
%TD*%
D10*
%TO.P,C40,1*%
%TO.N,PA7*%
X149220000Y-86830000D03*
%TO.P,C40,2*%
%TO.N,GND*%
X144220000Y-86830000D03*
%TD*%
%TO.P,R13,1*%
%TO.N,Net-(Q2-Pad1)*%
X167460000Y-73010000D03*
%TO.P,R13,2*%
%TO.N,Net-(U1-HO)*%
X159840000Y-73010000D03*
%TD*%
D17*
%TO.P,J12,1,Pin_1*%
%TO.N,PA7*%
X149380000Y-90250000D03*
%TD*%
D10*
%TO.P,C43,1*%
%TO.N,GND*%
X144440000Y-110485000D03*
%TO.P,C43,2*%
%TO.N,PA0*%
X149440000Y-110485000D03*
%TD*%
%TO.P,C27,1*%
%TO.N,+3.3V*%
X120610000Y-85490000D03*
%TO.P,C27,2*%
%TO.N,GND*%
X125610000Y-85490000D03*
%TD*%
%TO.P,C8,1*%
%TO.N,GND*%
X144440000Y-105195000D03*
%TO.P,C8,2*%
%TO.N,+5V*%
X149440000Y-105195000D03*
%TD*%
%TO.P,C2,1*%
%TO.N,Net-(D1-K)*%
X161830000Y-107605000D03*
%TO.P,C2,2*%
%TO.N,Net-(U2-VS)*%
X166830000Y-107605000D03*
%TD*%
%TO.P,R3,1*%
%TO.N,Net-(D2-A)*%
X178770000Y-139915000D03*
%TO.P,R3,2*%
%TO.N,+12V*%
X171150000Y-139915000D03*
%TD*%
%TO.P,C1,1*%
%TO.N,Net-(D5-K)*%
X162360000Y-78830000D03*
%TO.P,C1,2*%
%TO.N,Net-(U1-VS)*%
X167360000Y-78830000D03*
%TD*%
D17*
%TO.P,J14,1,Pin_1*%
%TO.N,PA9*%
X149450000Y-145985000D03*
%TD*%
%TO.P,J4,1,Pin_1*%
%TO.N,PA0*%
X140340000Y-110515000D03*
%TD*%
D26*
%TO.P,U4,1,VBAT*%
%TO.N,+3.3V*%
X108500000Y-87875000D03*
%TO.P,U4,2,PC13*%
%TO.N,unconnected-(U4-PC13-Pad2)*%
X109000000Y-87875000D03*
%TO.P,U4,3,PC14*%
%TO.N,unconnected-(U4-PC14-Pad3)*%
X109500000Y-87875000D03*
%TO.P,U4,4,PC15*%
%TO.N,unconnected-(U4-PC15-Pad4)*%
X110000000Y-87875000D03*
%TO.P,U4,5,PH0*%
%TO.N,OSC_IN*%
X110500000Y-87875000D03*
%TO.P,U4,6,PH1*%
%TO.N,OSC_OUT*%
X111000000Y-87875000D03*
%TO.P,U4,7,NRST*%
%TO.N,NRST*%
X111500000Y-87875000D03*
%TO.P,U4,8,PC0*%
%TO.N,PC0_ADC*%
X112000000Y-87875000D03*
%TO.P,U4,9,PC1*%
%TO.N,PC1_ADC*%
X112500000Y-87875000D03*
%TO.P,U4,10,PC2*%
%TO.N,PC2_ADC*%
X113000000Y-87875000D03*
%TO.P,U4,11,PC3*%
%TO.N,unconnected-(U4-PC3-Pad11)*%
X113500000Y-87875000D03*
%TO.P,U4,12,VSSA*%
%TO.N,GND*%
X114000000Y-87875000D03*
%TO.P,U4,13,VDDA*%
%TO.N,+3.3V*%
X114500000Y-87875000D03*
%TO.P,U4,14,PA0*%
%TO.N,PA0*%
X115000000Y-87875000D03*
%TO.P,U4,15,PA1*%
%TO.N,PA1*%
X115500000Y-87875000D03*
%TO.P,U4,16,PA2*%
%TO.N,PA2_TX*%
X116000000Y-87875000D03*
D27*
%TO.P,U4,17,PA3*%
%TO.N,PA3_RX*%
X117925000Y-85950000D03*
%TO.P,U4,18,VSS*%
%TO.N,GND*%
X117925000Y-85450000D03*
%TO.P,U4,19,VDD*%
%TO.N,+3.3V*%
X117925000Y-84950000D03*
%TO.P,U4,20,PA4*%
%TO.N,unconnected-(U4-PA4-Pad20)*%
X117925000Y-84450000D03*
%TO.P,U4,21,PA5*%
%TO.N,unconnected-(U4-PA5-Pad21)*%
X117925000Y-83950000D03*
%TO.P,U4,22,PA6*%
%TO.N,PA6*%
X117925000Y-83450000D03*
%TO.P,U4,23,PA7*%
%TO.N,PA7*%
X117925000Y-82950000D03*
%TO.P,U4,24,PC4*%
%TO.N,unconnected-(U4-PC4-Pad24)*%
X117925000Y-82450000D03*
%TO.P,U4,25,PC5*%
%TO.N,unconnected-(U4-PC5-Pad25)*%
X117925000Y-81950000D03*
%TO.P,U4,26,PB0*%
%TO.N,unconnected-(U4-PB0-Pad26)*%
X117925000Y-81450000D03*
%TO.P,U4,27,PB1*%
%TO.N,unconnected-(U4-PB1-Pad27)*%
X117925000Y-80950000D03*
%TO.P,U4,28,PB2*%
%TO.N,unconnected-(U4-PB2-Pad28)*%
X117925000Y-80450000D03*
%TO.P,U4,29,PB10*%
%TO.N,unconnected-(U4-PB10-Pad29)*%
X117925000Y-79950000D03*
%TO.P,U4,30,VCAP1*%
%TO.N,Net-(U4-VCAP1)*%
X117925000Y-79450000D03*
%TO.P,U4,31,VSS*%
%TO.N,GND*%
X117925000Y-78950000D03*
%TO.P,U4,32,VDD*%
%TO.N,+3.3V*%
X117925000Y-78450000D03*
D26*
%TO.P,U4,33,PB12*%
%TO.N,unconnected-(U4-PB12-Pad33)*%
X116000000Y-76525000D03*
%TO.P,U4,34,PB13*%
%TO.N,unconnected-(U4-PB13-Pad34)*%
X115500000Y-76525000D03*
%TO.P,U4,35,PB14*%
%TO.N,unconnected-(U4-PB14-Pad35)*%
X115000000Y-76525000D03*
%TO.P,U4,36,PB15*%
%TO.N,unconnected-(U4-PB15-Pad36)*%
X114500000Y-76525000D03*
%TO.P,U4,37,PC6*%
%TO.N,PC6_TX*%
X114000000Y-76525000D03*
%TO.P,U4,38,PC7*%
%TO.N,PC7_RX*%
X113500000Y-76525000D03*
%TO.P,U4,39,PC8*%
%TO.N,unconnected-(U4-PC8-Pad39)*%
X113000000Y-76525000D03*
%TO.P,U4,40,PC9*%
%TO.N,unconnected-(U4-PC9-Pad40)*%
X112500000Y-76525000D03*
%TO.P,U4,41,PA8*%
%TO.N,PA8*%
X112000000Y-76525000D03*
%TO.P,U4,42,PA9*%
%TO.N,PA9*%
X111500000Y-76525000D03*
%TO.P,U4,43,PA10*%
%TO.N,unconnected-(U4-PA10-Pad43)*%
X111000000Y-76525000D03*
%TO.P,U4,44,PA11*%
%TO.N,unconnected-(U4-PA11-Pad44)*%
X110500000Y-76525000D03*
%TO.P,U4,45,PA12*%
%TO.N,unconnected-(U4-PA12-Pad45)*%
X110000000Y-76525000D03*
%TO.P,U4,46,PA13*%
%TO.N,SWDIO*%
X109500000Y-76525000D03*
%TO.P,U4,47,VSS*%
%TO.N,GND*%
X109000000Y-76525000D03*
%TO.P,U4,48,VDD*%
%TO.N,+3.3V*%
X108500000Y-76525000D03*
D27*
%TO.P,U4,49,PA14*%
%TO.N,SWCLK*%
X106575000Y-78450000D03*
%TO.P,U4,50,PA15*%
%TO.N,unconnected-(U4-PA15-Pad50)*%
X106575000Y-78950000D03*
%TO.P,U4,51,PC10*%
%TO.N,unconnected-(U4-PC10-Pad51)*%
X106575000Y-79450000D03*
%TO.P,U4,52,PC11*%
%TO.N,unconnected-(U4-PC11-Pad52)*%
X106575000Y-79950000D03*
%TO.P,U4,53,PC12*%
%TO.N,unconnected-(U4-PC12-Pad53)*%
X106575000Y-80450000D03*
%TO.P,U4,54,PD2*%
%TO.N,unconnected-(U4-PD2-Pad54)*%
X106575000Y-80950000D03*
%TO.P,U4,55,PB3*%
%TO.N,SWO*%
X106575000Y-81450000D03*
%TO.P,U4,56,PB4*%
%TO.N,unconnected-(U4-PB4-Pad56)*%
X106575000Y-81950000D03*
%TO.P,U4,57,PB5*%
%TO.N,unconnected-(U4-PB5-Pad57)*%
X106575000Y-82450000D03*
%TO.P,U4,58,PB6*%
%TO.N,unconnected-(U4-PB6-Pad58)*%
X106575000Y-82950000D03*
%TO.P,U4,59,PB7*%
%TO.N,unconnected-(U4-PB7-Pad59)*%
X106575000Y-83450000D03*
%TO.P,U4,60,BOOT0*%
%TO.N,Net-(U4-BOOT0)*%
X106575000Y-83950000D03*
%TO.P,U4,61,PB8*%
%TO.N,unconnected-(U4-PB8-Pad61)*%
X106575000Y-84450000D03*
%TO.P,U4,62,PB9*%
%TO.N,unconnected-(U4-PB9-Pad62)*%
X106575000Y-84950000D03*
%TO.P,U4,63,VSS*%
%TO.N,GND*%
X106575000Y-85450000D03*
%TO.P,U4,64,VDD*%
%TO.N,+3.3V*%
X106575000Y-85950000D03*
%TD*%
D25*
%TO.P,SW1,1,1*%
%TO.N,GND*%
X92510000Y-67320000D03*
X99010000Y-67320000D03*
%TO.P,SW1,2,2*%
%TO.N,NRST*%
X92510000Y-71820000D03*
X99010000Y-71820000D03*
%TD*%
D10*
%TO.P,R18,1*%
%TO.N,Net-(Q5-Pad1)*%
X175800000Y-147700000D03*
%TO.P,R18,2*%
%TO.N,Net-(U3-LO)*%
X168180000Y-147700000D03*
%TD*%
D17*
%TO.P,J6,1,Pin_1*%
%TO.N,PC2_ADC*%
X126000000Y-103875000D03*
%TD*%
D10*
%TO.P,C3,1*%
%TO.N,Net-(D2-K)*%
X162750000Y-135015000D03*
%TO.P,C3,2*%
%TO.N,Net-(U3-VS)*%
X167750000Y-135015000D03*
%TD*%
%TO.P,C36,1*%
%TO.N,OSC_OUT*%
X93260000Y-92800000D03*
%TO.P,C36,2*%
%TO.N,GND*%
X93260000Y-97800000D03*
%TD*%
%TO.P,C11,1*%
%TO.N,+12V*%
X172150000Y-116960000D03*
%TO.P,C11,2*%
%TO.N,GND*%
X177150000Y-116960000D03*
%TD*%
D17*
%TO.P,J8,1,Pin_1*%
%TO.N,PC6_TX*%
X118740000Y-73390000D03*
%TD*%
D10*
%TO.P,C31,1*%
%TO.N,+3.3V*%
X103670000Y-94910000D03*
%TO.P,C31,2*%
%TO.N,GND*%
X98670000Y-94910000D03*
%TD*%
%TO.P,C5,1*%
%TO.N,PC1_ADC*%
X117000000Y-94875000D03*
%TO.P,C5,2*%
%TO.N,GND*%
X117000000Y-99875000D03*
%TD*%
%TO.P,C9,1*%
%TO.N,GND*%
X144410000Y-134755000D03*
%TO.P,C9,2*%
%TO.N,+5V*%
X149410000Y-134755000D03*
%TD*%
%TO.P,C37,1*%
%TO.N,Net-(U7C-V+)*%
X113500000Y-112875000D03*
%TO.P,C37,2*%
%TO.N,+3.3V*%
X108500000Y-112875000D03*
%TD*%
%TO.P,C38,1*%
%TO.N,Net-(U5C-V+)*%
X124750000Y-112875000D03*
%TO.P,C38,2*%
%TO.N,+3.3V*%
X119750000Y-112875000D03*
%TD*%
%TO.P,R5,1*%
%TO.N,PhaseB*%
X109380000Y-154335000D03*
%TO.P,R5,2*%
%TO.N,Net-(U7A-+)*%
X101760000Y-154335000D03*
%TD*%
%TO.P,C45,1*%
%TO.N,GND*%
X129910000Y-90710000D03*
%TO.P,C45,2*%
%TO.N,+3.3V*%
X124910000Y-90710000D03*
%TD*%
D16*
%TO.P,U7,1*%
%TO.N,PC1_ADC*%
X101880000Y-120295000D03*
D10*
%TO.P,U7,2,-*%
%TO.N,Net-(U5A--)*%
X101880000Y-122835000D03*
%TO.P,U7,3,+*%
%TO.N,Net-(U7A-+)*%
X101880000Y-125375000D03*
%TO.P,U7,4,V-*%
%TO.N,GND*%
X101880000Y-127915000D03*
%TO.P,U7,5*%
%TO.N,N/C*%
X109500000Y-127915000D03*
%TO.P,U7,6*%
X109500000Y-125375000D03*
%TO.P,U7,7*%
X109500000Y-122835000D03*
%TO.P,U7,8,V+*%
%TO.N,Net-(U7C-V+)*%
X109500000Y-120295000D03*
%TD*%
D18*
%TO.P,Q5,1*%
%TO.N,Net-(Q5-Pad1)*%
X195014000Y-162620000D03*
D19*
%TO.P,Q5,2*%
%TO.N,PhaseC*%
X195014000Y-160080000D03*
%TO.P,Q5,3*%
%TO.N,GND*%
X195014000Y-157540000D03*
%TD*%
D10*
%TO.P,C22,1*%
%TO.N,+12V*%
X163500000Y-88375000D03*
%TO.P,C22,2*%
%TO.N,GND*%
X168500000Y-88375000D03*
%TD*%
%TO.P,C19,1*%
%TO.N,+12V*%
X176355000Y-51870000D03*
%TO.P,C19,2*%
%TO.N,GND*%
X176355000Y-56870000D03*
%TD*%
D22*
%TO.P,U1,1,LO*%
%TO.N,Net-(U1-LO)*%
X159805000Y-91495000D03*
D10*
%TO.P,U1,2,COM*%
%TO.N,GND*%
X159805000Y-88955000D03*
%TO.P,U1,3,VCC*%
%TO.N,+12V*%
X159805000Y-86415000D03*
%TO.P,U1,4,NC*%
%TO.N,unconnected-(U1-NC-Pad4)*%
X159805000Y-83875000D03*
%TO.P,U1,5,VS*%
%TO.N,Net-(U1-VS)*%
X159805000Y-81335000D03*
%TO.P,U1,6,VB*%
%TO.N,Net-(D5-K)*%
X159805000Y-78795000D03*
%TO.P,U1,7,HO*%
%TO.N,Net-(U1-HO)*%
X159805000Y-76255000D03*
%TO.P,U1,8,NC*%
%TO.N,unconnected-(U1-NC-Pad8)*%
X152185000Y-76255000D03*
%TO.P,U1,9,VDD*%
%TO.N,+5V*%
X152185000Y-78795000D03*
%TO.P,U1,10,HIN*%
%TO.N,PA6*%
X152185000Y-81335000D03*
%TO.P,U1,11,SD*%
%TO.N,GND*%
X152185000Y-83875000D03*
%TO.P,U1,12,LIN*%
%TO.N,PA7*%
X152185000Y-86415000D03*
%TO.P,U1,13,VSS*%
%TO.N,GND*%
X152185000Y-88955000D03*
%TO.P,U1,14,NC*%
%TO.N,unconnected-(U1-NC-Pad14)*%
X152185000Y-91495000D03*
%TD*%
%TO.P,C20,1*%
%TO.N,+12V*%
X184610000Y-51870000D03*
%TO.P,C20,2*%
%TO.N,GND*%
X184610000Y-56870000D03*
%TD*%
D17*
%TO.P,J11,1,Pin_1*%
%TO.N,PA6*%
X141940000Y-84620000D03*
%TD*%
D28*
%TO.P,J1,1,Pin_1*%
%TO.N,PhaseA*%
X233014000Y-106620000D03*
D29*
%TO.P,J1,2,Pin_2*%
%TO.N,PhaseB*%
X233014000Y-111620000D03*
%TO.P,J1,3,Pin_3*%
%TO.N,PhaseC*%
X233014000Y-116620000D03*
%TD*%
D30*
%TO.P,BT1,1,+*%
%TO.N,Net-(BT1-+)*%
X223250000Y-46650000D03*
D31*
%TO.P,BT1,2,-*%
%TO.N,GND*%
X223250000Y-53850000D03*
%TD*%
D10*
%TO.P,R15,1*%
%TO.N,Net-(Q3-Pad1)*%
X167090000Y-100840000D03*
%TO.P,R15,2*%
%TO.N,Net-(U2-HO)*%
X159470000Y-100840000D03*
%TD*%
%TO.P,R8,1*%
%TO.N,Net-(U7A-+)*%
X101760000Y-147085000D03*
%TO.P,R8,2*%
%TO.N,GND*%
X109380000Y-147085000D03*
%TD*%
%TO.P,C24,1*%
%TO.N,+12V*%
X162320000Y-144175000D03*
%TO.P,C24,2*%
%TO.N,GND*%
X167320000Y-144175000D03*
%TD*%
D18*
%TO.P,Q6,1*%
%TO.N,Net-(Q6-Pad1)*%
X195014000Y-146320000D03*
D19*
%TO.P,Q6,2*%
%TO.N,+12V*%
X195014000Y-143780000D03*
%TO.P,Q6,3*%
%TO.N,PhaseC*%
X195014000Y-141240000D03*
%TD*%
D10*
%TO.P,C12,1*%
%TO.N,+12V*%
X163550000Y-84220000D03*
%TO.P,C12,2*%
%TO.N,GND*%
X168550000Y-84220000D03*
%TD*%
D18*
%TO.P,Q4,1*%
%TO.N,Net-(Q4-Pad1)*%
X195014000Y-130020000D03*
D19*
%TO.P,Q4,2*%
%TO.N,PhaseB*%
X195014000Y-127480000D03*
%TO.P,Q4,3*%
%TO.N,GND*%
X195014000Y-124940000D03*
%TD*%
D10*
%TO.P,R11,1*%
%TO.N,Net-(U7A-+)*%
X101760000Y-139835000D03*
%TO.P,R11,2*%
%TO.N,Net-(U5A--)*%
X109380000Y-139835000D03*
%TD*%
%TO.P,C15,1*%
%TO.N,+12V*%
X212014000Y-87620000D03*
%TO.P,C15,2*%
%TO.N,GND*%
X217014000Y-87620000D03*
%TD*%
%TO.P,C10,1*%
%TO.N,+12V*%
X162350000Y-139815000D03*
%TO.P,C10,2*%
%TO.N,GND*%
X167350000Y-139815000D03*
%TD*%
D18*
%TO.P,Q2,1*%
%TO.N,Net-(Q2-Pad1)*%
X195014000Y-81120000D03*
D19*
%TO.P,Q2,2*%
%TO.N,+12V*%
X195014000Y-78580000D03*
%TO.P,Q2,3*%
%TO.N,PhaseA*%
X195014000Y-76040000D03*
%TD*%
D17*
%TO.P,J7,1,Pin_1*%
%TO.N,PC7_RX*%
X116000000Y-73375000D03*
%TD*%
D10*
%TO.P,C39,1*%
%TO.N,GND*%
X144490000Y-139085000D03*
%TO.P,C39,2*%
%TO.N,PA8*%
X149490000Y-139085000D03*
%TD*%
D32*
%TO.N,+5V*%
X137020000Y-84780000D03*
X137020000Y-106530000D03*
X137010000Y-81170000D03*
X137010000Y-66450000D03*
X137000000Y-112180000D03*
X137010000Y-63890000D03*
%TO.N,+3.3V*%
X98660000Y-92060000D03*
X118570000Y-70450000D03*
X113320000Y-70430000D03*
X105010000Y-86790000D03*
X110160000Y-70430000D03*
X131010000Y-81899000D03*
X131010000Y-85150000D03*
X106704265Y-87974265D03*
X105470000Y-70420000D03*
X111750000Y-107625000D03*
X96000000Y-95180000D03*
X105500000Y-107625000D03*
X115250000Y-107625000D03*
X101250000Y-107625000D03*
%TO.N,GND*%
X116520000Y-79270000D03*
X108460000Y-84920000D03*
X115500000Y-84890000D03*
X113500000Y-86010000D03*
X110050000Y-78030000D03*
%TO.N,NRST*%
X99040000Y-69310000D03*
X103239000Y-68240000D03*
%TO.N,PhaseB*%
X239514000Y-117870000D03*
X239514000Y-115370000D03*
%TO.N,PhaseA*%
X238264000Y-117620000D03*
X238264000Y-110120000D03*
%TO.N,PA3_RX*%
X126590000Y-87290000D03*
X119309802Y-86527022D03*
%TO.N,Net-(Q1-Pad1)*%
X184020000Y-94680000D03*
X190330000Y-94630000D03*
%TO.N,Net-(Q2-Pad1)*%
X186510000Y-73050000D03*
X180240000Y-73030000D03*
%TO.N,Net-(Q3-Pad1)*%
X183790000Y-101680000D03*
X190860000Y-108720000D03*
%TO.N,Net-(Q4-Pad1)*%
X182690000Y-122720000D03*
X190620000Y-122780000D03*
%TO.N,Net-(Q6-Pad1)*%
X183440000Y-146540000D03*
X190500000Y-147290000D03*
%TD*%
D33*
%TO.N,Net-(BT1-+)*%
X198970000Y-58470000D02*
X198970000Y-51710000D01*
X208680000Y-51140000D02*
X208680000Y-56390000D01*
X223250000Y-46650000D02*
X213170000Y-46650000D01*
X208680000Y-56390000D02*
X206600000Y-58470000D01*
X213170000Y-46650000D02*
X208680000Y-51140000D01*
X206600000Y-58470000D02*
X198970000Y-58470000D01*
D34*
%TO.N,Net-(U1-VS)*%
X167360000Y-80880000D02*
X167360000Y-78830000D01*
X166905000Y-81335000D02*
X167360000Y-80880000D01*
X159805000Y-81335000D02*
X166905000Y-81335000D01*
%TO.N,Net-(D5-K)*%
X169880000Y-78860000D02*
X169880000Y-76530000D01*
X159805000Y-78795000D02*
X162325000Y-78795000D01*
X162360000Y-76680000D02*
X162360000Y-78830000D01*
X163030000Y-76010000D02*
X162360000Y-76680000D01*
X169360000Y-76010000D02*
X163030000Y-76010000D01*
D35*
X160225000Y-78375000D02*
X159805000Y-78795000D01*
X162325000Y-78795000D02*
X162360000Y-78830000D01*
D34*
X169880000Y-76530000D02*
X169360000Y-76010000D01*
%TO.N,Net-(D1-K)*%
X168670000Y-104425000D02*
X162560000Y-104425000D01*
X162560000Y-104425000D02*
X161830000Y-105155000D01*
X169410000Y-105165000D02*
X168670000Y-104425000D01*
X169410000Y-107595000D02*
X169410000Y-105165000D01*
X161830000Y-105155000D02*
X161830000Y-107605000D01*
X159455000Y-106880000D02*
X161105000Y-106880000D01*
X161105000Y-106880000D02*
X161830000Y-107605000D01*
%TO.N,Net-(U2-VS)*%
X166830000Y-109155000D02*
X166830000Y-107605000D01*
X166565000Y-109420000D02*
X166830000Y-109155000D01*
X159455000Y-109420000D02*
X166565000Y-109420000D01*
%TO.N,Net-(U3-VS)*%
X167750000Y-136685000D02*
X166905000Y-137530000D01*
X167750000Y-135015000D02*
X167750000Y-136685000D01*
X166905000Y-137530000D02*
X159490000Y-137530000D01*
%TO.N,Net-(D2-K)*%
X170140000Y-131715000D02*
X169620000Y-131195000D01*
X159490000Y-134990000D02*
X162725000Y-134990000D01*
D35*
X162725000Y-134990000D02*
X162750000Y-135015000D01*
D34*
X169620000Y-131195000D02*
X163190000Y-131195000D01*
X162750000Y-131635000D02*
X162750000Y-135015000D01*
X170140000Y-135105000D02*
X170140000Y-131715000D01*
X163190000Y-131195000D02*
X162750000Y-131635000D01*
%TO.N,+5V*%
X151700000Y-134820000D02*
X151870000Y-134990000D01*
D36*
X141500000Y-72875000D02*
X137075000Y-72875000D01*
X65190000Y-51770000D02*
X64060000Y-52900000D01*
X135610000Y-51770000D02*
X65190000Y-51770000D01*
X149410000Y-127770000D02*
X149410000Y-134755000D01*
X139450000Y-126490000D02*
X148130000Y-126490000D01*
X137010000Y-81170000D02*
X137010000Y-72810000D01*
X137020000Y-98420000D02*
X139870000Y-101270000D01*
X137075000Y-72875000D02*
X137010000Y-72810000D01*
X137010000Y-63890000D02*
X137010000Y-53170000D01*
X137020000Y-84780000D02*
X137020000Y-98420000D01*
X137000000Y-124040000D02*
X139450000Y-126490000D01*
X137020000Y-98420000D02*
X137020000Y-106530000D01*
X149440000Y-105195000D02*
X150150000Y-105195000D01*
D34*
X151755000Y-106960000D02*
X151835000Y-106880000D01*
D36*
X145515000Y-101270000D02*
X149440000Y-105195000D01*
X141500000Y-72875000D02*
X146735000Y-72875000D01*
X148130000Y-126490000D02*
X149410000Y-127770000D01*
X137000000Y-112180000D02*
X137000000Y-124040000D01*
X151635000Y-134755000D02*
X151870000Y-134990000D01*
X64060000Y-52900000D02*
X64060000Y-63510000D01*
X139870000Y-101270000D02*
X145515000Y-101270000D01*
X150150000Y-105195000D02*
X151835000Y-106880000D01*
X149740000Y-75880000D02*
X149740000Y-77625000D01*
X149410000Y-134755000D02*
X151635000Y-134755000D01*
X149740000Y-77625000D02*
X150960000Y-78845000D01*
X137010000Y-72810000D02*
X137010000Y-66450000D01*
X150960000Y-78845000D02*
X151010000Y-78795000D01*
X146735000Y-72875000D02*
X149740000Y-75880000D01*
X151010000Y-78795000D02*
X152185000Y-78795000D01*
X137010000Y-53170000D02*
X135610000Y-51770000D01*
D33*
%TO.N,+12V*%
X183269945Y-86370000D02*
X187270000Y-90370055D01*
D34*
X200103000Y-78580000D02*
X200514000Y-78991000D01*
X170250000Y-84900000D02*
X170990000Y-84160000D01*
X164350000Y-142610000D02*
X169780000Y-142610000D01*
X181014000Y-143544000D02*
X181014000Y-151620000D01*
X164350000Y-142610000D02*
X162600000Y-142610000D01*
X200053000Y-143780000D02*
X200514000Y-144241000D01*
D33*
X187270000Y-126740000D02*
X187270000Y-151620000D01*
D36*
X195014000Y-111180000D02*
X200203000Y-111180000D01*
D33*
X181790000Y-37680000D02*
X169190000Y-37680000D01*
X189050000Y-51870000D02*
X191340000Y-54160000D01*
X206764000Y-116120000D02*
X209014000Y-116120000D01*
X208514000Y-148620000D02*
X211764000Y-151870000D01*
X183269945Y-86370000D02*
X203514000Y-86370000D01*
X58370000Y-39100000D02*
X142350000Y-39100000D01*
D34*
X162190000Y-86415000D02*
X164000000Y-86415000D01*
D33*
X56401000Y-41069000D02*
X58370000Y-39100000D01*
D34*
X164000000Y-86415000D02*
X170250000Y-86415000D01*
X164350000Y-140335000D02*
X163830000Y-139815000D01*
D36*
X195014000Y-143780000D02*
X200053000Y-143780000D01*
D34*
X172650000Y-112525000D02*
X173390000Y-111785000D01*
D33*
X206514000Y-148620000D02*
X208514000Y-148620000D01*
D34*
X164350000Y-142610000D02*
X164350000Y-140335000D01*
X186750000Y-114690000D02*
X187270000Y-115210000D01*
D33*
X205635000Y-78991000D02*
X208264000Y-81620000D01*
D34*
X174940000Y-113770000D02*
X175860000Y-114690000D01*
D33*
X56401000Y-149271000D02*
X64070000Y-156940000D01*
X206514000Y-148620000D02*
X203514000Y-151620000D01*
X187270000Y-151620000D02*
X181014000Y-151620000D01*
X183269945Y-86370000D02*
X183269945Y-69209945D01*
D34*
X169780000Y-142610000D02*
X169780000Y-140475000D01*
D33*
X183269945Y-69209945D02*
X179800000Y-65740000D01*
X187270000Y-90370055D02*
X187270000Y-115210000D01*
X200764000Y-111741000D02*
X205885000Y-111741000D01*
X60680000Y-100770000D02*
X64060000Y-104150000D01*
X205885000Y-111741000D02*
X208514000Y-114370000D01*
D34*
X183224945Y-86415000D02*
X183269945Y-86370000D01*
X170340000Y-139915000D02*
X171150000Y-139915000D01*
D33*
X184610000Y-51870000D02*
X189050000Y-51870000D01*
D34*
X172650000Y-113710000D02*
X172650000Y-112525000D01*
X169780000Y-140475000D02*
X170340000Y-139915000D01*
D33*
X56401000Y-100770000D02*
X56401000Y-149271000D01*
X198960000Y-37680000D02*
X198970000Y-37670000D01*
D34*
X159805000Y-86415000D02*
X162190000Y-86415000D01*
D33*
X164090000Y-38190000D02*
X160540000Y-41740000D01*
X187270000Y-115210000D02*
X187270000Y-119120000D01*
D34*
X163500000Y-88375000D02*
X163500000Y-86915000D01*
X160245000Y-113710000D02*
X159455000Y-114500000D01*
D33*
X209014000Y-116120000D02*
X212764000Y-119870000D01*
X168680000Y-38190000D02*
X164090000Y-38190000D01*
X207764000Y-83370000D02*
X212014000Y-87620000D01*
D34*
X162600000Y-142610000D02*
X159490000Y-142610000D01*
X162320000Y-142925000D02*
X162320000Y-144175000D01*
X163650000Y-116960000D02*
X163650000Y-114210000D01*
D33*
X208264000Y-81620000D02*
X206514000Y-83370000D01*
X203514000Y-86370000D02*
X206514000Y-83370000D01*
D34*
X170250000Y-86415000D02*
X183224945Y-86415000D01*
D33*
X160540000Y-41740000D02*
X160540000Y-49580000D01*
D34*
X170250000Y-86415000D02*
X170250000Y-84900000D01*
D33*
X205635000Y-144241000D02*
X200514000Y-144241000D01*
X163190000Y-51870000D02*
X184610000Y-51870000D01*
X181790000Y-37680000D02*
X198960000Y-37680000D01*
D34*
X163650000Y-114210000D02*
X164150000Y-113710000D01*
D33*
X156030000Y-64140000D02*
X157630000Y-65740000D01*
D34*
X174940000Y-111785000D02*
X174940000Y-113770000D01*
X172150000Y-116960000D02*
X172150000Y-114210000D01*
D33*
X206514000Y-145120000D02*
X208264000Y-146870000D01*
X156030000Y-52780000D02*
X156030000Y-64140000D01*
X208514000Y-114370000D02*
X206764000Y-116120000D01*
D34*
X162600000Y-142645000D02*
X162320000Y-142925000D01*
D33*
X191340000Y-61390000D02*
X186990000Y-65740000D01*
X203514000Y-151620000D02*
X187270000Y-151620000D01*
D34*
X172150000Y-114210000D02*
X172650000Y-113710000D01*
D33*
X198970000Y-44430000D02*
X198970000Y-37670000D01*
X163010000Y-52050000D02*
X163190000Y-51870000D01*
X56401000Y-100770000D02*
X60680000Y-100770000D01*
X208264000Y-146870000D02*
X206514000Y-148620000D01*
D34*
X180080000Y-142610000D02*
X181014000Y-143544000D01*
D33*
X206514000Y-83370000D02*
X207764000Y-83370000D01*
D34*
X163500000Y-86915000D02*
X164000000Y-86415000D01*
X175860000Y-114690000D02*
X186750000Y-114690000D01*
D33*
X200514000Y-78991000D02*
X205635000Y-78991000D01*
X187270000Y-119120000D02*
X187270000Y-126740000D01*
D34*
X169780000Y-142610000D02*
X180080000Y-142610000D01*
D33*
X157630000Y-65740000D02*
X179800000Y-65740000D01*
X56401000Y-100770000D02*
X56401000Y-41069000D01*
X203764000Y-119120000D02*
X187270000Y-119120000D01*
X142350000Y-39100000D02*
X156030000Y-52780000D01*
X186990000Y-65740000D02*
X179800000Y-65740000D01*
D34*
X162190000Y-85580000D02*
X163550000Y-84220000D01*
X162190000Y-86415000D02*
X162190000Y-85580000D01*
X163830000Y-139815000D02*
X162350000Y-139815000D01*
D33*
X206764000Y-116120000D02*
X203764000Y-119120000D01*
D34*
X172650000Y-113710000D02*
X164150000Y-113710000D01*
D36*
X195014000Y-78580000D02*
X200103000Y-78580000D01*
D34*
X164150000Y-113710000D02*
X160245000Y-113710000D01*
X162600000Y-142610000D02*
X162600000Y-142645000D01*
D33*
X208264000Y-146870000D02*
X205635000Y-144241000D01*
X160540000Y-49580000D02*
X163010000Y-52050000D01*
D34*
X200203000Y-111180000D02*
X200764000Y-111741000D01*
X173390000Y-111785000D02*
X174940000Y-111785000D01*
D33*
X191340000Y-54160000D02*
X191340000Y-61390000D01*
D34*
X170990000Y-84160000D02*
X172070000Y-84160000D01*
D35*
%TO.N,PA9*%
X147500000Y-69942100D02*
X147500000Y-65307900D01*
X155599000Y-71474000D02*
X155000000Y-70875000D01*
X153230000Y-141955000D02*
X155599000Y-139586000D01*
X149716000Y-146251000D02*
X154174000Y-146251000D01*
X111500000Y-74602900D02*
X111500000Y-76525000D01*
X147500000Y-65307900D02*
X147166100Y-64974000D01*
X121128900Y-64974000D02*
X111500000Y-74602900D01*
X154174000Y-146251000D02*
X154350000Y-146075000D01*
X149040000Y-142865000D02*
X151615000Y-142865000D01*
X148432900Y-70875000D02*
X147500000Y-69942100D01*
X151765000Y-142505000D02*
X151870000Y-142610000D01*
X151585000Y-142895000D02*
X151870000Y-142610000D01*
X154350000Y-143005000D02*
X153955000Y-142610000D01*
X154350000Y-146075000D02*
X154350000Y-143005000D01*
X147166100Y-64974000D02*
X121128900Y-64974000D01*
X151615000Y-142865000D02*
X151870000Y-142610000D01*
X153230000Y-142610000D02*
X153230000Y-141955000D01*
X153955000Y-142610000D02*
X153230000Y-142610000D01*
X155599000Y-139586000D02*
X155599000Y-71474000D01*
X149450000Y-145985000D02*
X149716000Y-146251000D01*
X155000000Y-70875000D02*
X148432900Y-70875000D01*
X153230000Y-142610000D02*
X151870000Y-142610000D01*
%TO.N,+3.3V*%
X117040000Y-88290000D02*
X119473249Y-90723249D01*
D36*
X98660000Y-92060000D02*
X103560000Y-92060000D01*
X105500000Y-107625000D02*
X108000000Y-107625000D01*
X67330000Y-107560000D02*
X64070000Y-110820000D01*
X104400000Y-91220000D02*
X106310000Y-89310000D01*
X96010000Y-102410000D02*
X96110000Y-102310000D01*
X96010000Y-99670000D02*
X96010000Y-95190000D01*
X131010000Y-73590000D02*
X131010000Y-81899000D01*
D35*
X114500000Y-86900000D02*
X115080000Y-86320000D01*
X117925000Y-78450000D02*
X119980000Y-78450000D01*
D36*
X88320000Y-107560000D02*
X67330000Y-107560000D01*
X118570000Y-70450000D02*
X119500000Y-70450000D01*
X108500000Y-112875000D02*
X108500000Y-108125000D01*
X103560000Y-92060000D02*
X104400000Y-91220000D01*
X130340000Y-54300000D02*
X90150000Y-54300000D01*
X101561000Y-70600000D02*
X101560999Y-70755339D01*
X96010000Y-99670000D02*
X96890000Y-98790000D01*
D35*
X120610000Y-85490000D02*
X120610000Y-88593010D01*
D36*
X96010000Y-95190000D02*
X96000000Y-95180000D01*
X120460000Y-71410000D02*
X128830000Y-71410000D01*
D35*
X114500000Y-87875000D02*
X114500000Y-86900000D01*
X117925000Y-84950000D02*
X120070000Y-84950000D01*
X104720000Y-85950000D02*
X104720000Y-86500000D01*
D36*
X119750000Y-108375000D02*
X119000000Y-107625000D01*
D35*
X102680000Y-83910000D02*
X102680000Y-80730000D01*
D36*
X127430000Y-90710000D02*
X124910000Y-90710000D01*
X110160000Y-70430000D02*
X113320000Y-70430000D01*
D35*
X108500000Y-87875000D02*
X108500000Y-88880000D01*
D36*
X120460000Y-71410000D02*
X120760000Y-71710000D01*
X122753488Y-90710000D02*
X122740239Y-90723249D01*
X124910000Y-90710000D02*
X122753488Y-90710000D01*
D35*
X115080000Y-86320000D02*
X116570000Y-86320000D01*
D36*
X64070000Y-110820000D02*
X64070000Y-116300000D01*
X101000000Y-71316338D02*
X101000000Y-79050000D01*
D35*
X108500000Y-76525000D02*
X108500000Y-75490000D01*
D36*
X100056000Y-98790000D02*
X103670000Y-95176000D01*
X130870000Y-57460000D02*
X130870000Y-54830000D01*
D35*
X119473249Y-90723249D02*
X122563249Y-90723249D01*
X106704265Y-87974265D02*
X108400735Y-87974265D01*
X122563249Y-90723249D02*
X122570000Y-90730000D01*
D36*
X105470000Y-70420000D02*
X105290000Y-70600000D01*
D35*
X108070000Y-89310000D02*
X106310000Y-89310000D01*
D36*
X88260000Y-107620000D02*
X88320000Y-107560000D01*
X96110000Y-102310000D02*
X98610000Y-102310000D01*
D35*
X104720000Y-86500000D02*
X105010000Y-86790000D01*
D36*
X88260000Y-112870000D02*
X88260000Y-107620000D01*
X101560999Y-70755339D02*
X101000000Y-71316338D01*
D35*
X109460000Y-74530000D02*
X109460000Y-73620000D01*
D36*
X131010000Y-85150000D02*
X131010000Y-87130000D01*
D35*
X117040000Y-86790000D02*
X117040000Y-88290000D01*
D36*
X120760000Y-71710000D02*
X120760000Y-77670000D01*
D35*
X108500000Y-75490000D02*
X109460000Y-74530000D01*
D36*
X96890000Y-98790000D02*
X100056000Y-98790000D01*
D35*
X104720000Y-85950000D02*
X102680000Y-83910000D01*
D36*
X90150000Y-54300000D02*
X88320000Y-56130000D01*
X96010000Y-107625000D02*
X96010000Y-102410000D01*
X128830000Y-71410000D02*
X131010000Y-73590000D01*
X119500000Y-70450000D02*
X120460000Y-71410000D01*
X108500000Y-108125000D02*
X108000000Y-107625000D01*
X96010000Y-102410000D02*
X96010000Y-99670000D01*
X101000000Y-79050000D02*
X102680000Y-80730000D01*
D35*
X120610000Y-88593010D02*
X122740239Y-90723249D01*
D36*
X96010000Y-107625000D02*
X101250000Y-107625000D01*
X119750000Y-112875000D02*
X119750000Y-108375000D01*
D35*
X108500000Y-88880000D02*
X108070000Y-89310000D01*
X119980000Y-78450000D02*
X120760000Y-77670000D01*
X106575000Y-85950000D02*
X104720000Y-85950000D01*
X116570000Y-86320000D02*
X117040000Y-86790000D01*
D36*
X115250000Y-107625000D02*
X119000000Y-107625000D01*
X88320000Y-56130000D02*
X88320000Y-107560000D01*
D35*
X108400735Y-87974265D02*
X108500000Y-87875000D01*
D36*
X130870000Y-54830000D02*
X130340000Y-54300000D01*
X89000000Y-107625000D02*
X96010000Y-107625000D01*
X108000000Y-107625000D02*
X111750000Y-107625000D01*
D35*
X120070000Y-84950000D02*
X120610000Y-85490000D01*
D36*
X131010000Y-87130000D02*
X127430000Y-90710000D01*
X105290000Y-70600000D02*
X101561000Y-70600000D01*
D35*
%TO.N,GND*%
X109000000Y-77333824D02*
X109696176Y-78030000D01*
X116840000Y-78950000D02*
X116520000Y-79270000D01*
X117925000Y-78950000D02*
X116840000Y-78950000D01*
X117925000Y-85450000D02*
X116060000Y-85450000D01*
X106575000Y-85450000D02*
X107930000Y-85450000D01*
X107930000Y-85450000D02*
X108460000Y-84920000D01*
X109000000Y-76525000D02*
X109000000Y-77333824D01*
X120670000Y-81270000D02*
X120680000Y-81260000D01*
X114000000Y-87875000D02*
X114000000Y-86510000D01*
X116060000Y-85450000D02*
X115500000Y-84890000D01*
X109696176Y-78030000D02*
X110050000Y-78030000D01*
X114000000Y-86510000D02*
X113500000Y-86010000D01*
%TO.N,Net-(U4-VCAP1)*%
X125670000Y-79620000D02*
X125670000Y-81540000D01*
X125500000Y-79450000D02*
X125670000Y-79620000D01*
X117925000Y-79450000D02*
X125500000Y-79450000D01*
D37*
%TO.N,NRST*%
X99040000Y-69310000D02*
X99010000Y-69340000D01*
X108820000Y-68240000D02*
X109050000Y-68240000D01*
D35*
X108799000Y-68240000D02*
X109050000Y-68240000D01*
X100510000Y-61320000D02*
X100010000Y-60820000D01*
X111500000Y-87875000D02*
X111500000Y-89009200D01*
X99510000Y-72320000D02*
X99010000Y-71820000D01*
X105355000Y-93770000D02*
X93972950Y-93770000D01*
X93972950Y-93770000D02*
X93282950Y-94460000D01*
D37*
X120750000Y-60040000D02*
X120710000Y-60000000D01*
D35*
X90120000Y-93180000D02*
X90120000Y-73590000D01*
X90120000Y-73590000D02*
X91890000Y-71820000D01*
X109634200Y-90875000D02*
X108250000Y-90875000D01*
X111500000Y-89009200D02*
X109634200Y-90875000D01*
D37*
X119500000Y-62250000D02*
X120750000Y-61000000D01*
D35*
X99010000Y-71820000D02*
X100510000Y-70320000D01*
X100510000Y-70320000D02*
X100510000Y-61320000D01*
X91890000Y-71820000D02*
X92510000Y-71820000D01*
X100010000Y-60820000D02*
X98510000Y-60820000D01*
X93282950Y-94460000D02*
X91400000Y-94460000D01*
D37*
X99010000Y-69340000D02*
X99010000Y-71820000D01*
D35*
X108250000Y-90875000D02*
X105355000Y-93770000D01*
D37*
X120750000Y-61000000D02*
X120750000Y-60040000D01*
D35*
X91400000Y-94460000D02*
X90120000Y-93180000D01*
D37*
X109050000Y-68240000D02*
X112385000Y-68240000D01*
X108820000Y-68240000D02*
X103239000Y-68240000D01*
D35*
X92510000Y-71820000D02*
X99010000Y-71820000D01*
D37*
X118375000Y-62250000D02*
X119500000Y-62250000D01*
X112385000Y-68240000D02*
X118375000Y-62250000D01*
D35*
%TO.N,OSC_IN*%
X99600000Y-84780000D02*
X99600000Y-87130000D01*
X98810000Y-83990000D02*
X99600000Y-84780000D01*
X97260000Y-83990000D02*
X98810000Y-83990000D01*
X97260000Y-81940000D02*
X97260000Y-83990000D01*
X91750000Y-81490000D02*
X96810000Y-81490000D01*
X99600000Y-87130000D02*
X100160000Y-87690000D01*
X106140000Y-87690000D02*
X107429000Y-86401000D01*
X107643824Y-86190000D02*
X110110000Y-86190000D01*
X97250000Y-84000000D02*
X97260000Y-83990000D01*
X100160000Y-87690000D02*
X106140000Y-87690000D01*
X96810000Y-81490000D02*
X97260000Y-81940000D01*
X110500000Y-86580000D02*
X110500000Y-87875000D01*
X107432824Y-86401000D02*
X107643824Y-86190000D01*
X107429000Y-86401000D02*
X107432824Y-86401000D01*
X110110000Y-86190000D02*
X110500000Y-86580000D01*
%TO.N,OSC_OUT*%
X105025000Y-93350000D02*
X97800000Y-93350000D01*
X93260000Y-92800000D02*
X93260000Y-89650000D01*
X109567100Y-90375000D02*
X108000000Y-90375000D01*
X111000000Y-87875000D02*
X111000000Y-88942100D01*
X108000000Y-90375000D02*
X105025000Y-93350000D01*
X97800000Y-93350000D02*
X97260000Y-92810000D01*
X93260000Y-89650000D02*
X94040000Y-88870000D01*
X97260000Y-92810000D02*
X97260000Y-88870000D01*
X111000000Y-88942100D02*
X109567100Y-90375000D01*
X94040000Y-88870000D02*
X97260000Y-88870000D01*
%TO.N,PA8*%
X154600000Y-134800000D02*
X154600000Y-71885000D01*
X147000000Y-70375000D02*
X148000000Y-71375000D01*
X148275000Y-137530000D02*
X151870000Y-137530000D01*
X140450000Y-137415000D02*
X141470000Y-136395000D01*
X147140000Y-136395000D02*
X148275000Y-137530000D01*
X154600000Y-134800000D02*
X151870000Y-137530000D01*
X112000000Y-76525000D02*
X112000000Y-74670000D01*
X151870000Y-138455000D02*
X151870000Y-137530000D01*
X146500000Y-65375000D02*
X147000000Y-65875000D01*
X147000000Y-65875000D02*
X147000000Y-70375000D01*
X112000000Y-74670000D02*
X121295000Y-65375000D01*
X148000000Y-71375000D02*
X154090000Y-71375000D01*
X149490000Y-139085000D02*
X151240000Y-139085000D01*
X154600000Y-71885000D02*
X154090000Y-71375000D01*
X151240000Y-139085000D02*
X151870000Y-138455000D01*
X121295000Y-65375000D02*
X146500000Y-65375000D01*
X141470000Y-136395000D02*
X147140000Y-136395000D01*
X140450000Y-139235000D02*
X140450000Y-137415000D01*
%TO.N,PA7*%
X140924999Y-82950000D02*
X142000000Y-81874999D01*
X153275000Y-86415000D02*
X152185000Y-86415000D01*
X152447050Y-85170000D02*
X149520000Y-85170000D01*
X117925000Y-82950000D02*
X140924999Y-82950000D01*
X142000000Y-80417000D02*
X142521000Y-79896000D01*
X149380000Y-90250000D02*
X153420000Y-90250000D01*
X153840000Y-86980000D02*
X153275000Y-86415000D01*
X142000000Y-81874999D02*
X142000000Y-80417000D01*
X149520000Y-85170000D02*
X149220000Y-85470000D01*
X153500000Y-84117050D02*
X152447050Y-85170000D01*
X153840000Y-89830000D02*
X153840000Y-86980000D01*
X152185000Y-86415000D02*
X149635000Y-86415000D01*
X142521000Y-79896000D02*
X153021000Y-79896000D01*
X149635000Y-86415000D02*
X149220000Y-86830000D01*
X153021000Y-79896000D02*
X153500000Y-80375000D01*
X149220000Y-85470000D02*
X149220000Y-86830000D01*
X153500000Y-80375000D02*
X153500000Y-84117050D01*
X153420000Y-90250000D02*
X153840000Y-89830000D01*
%TO.N,PA6*%
X152185000Y-80795000D02*
X152185000Y-81335000D01*
X149670000Y-81490000D02*
X149670000Y-80790000D01*
X117925000Y-83450000D02*
X142360000Y-83450000D01*
X147710000Y-83450000D02*
X149670000Y-81490000D01*
X152185000Y-81825000D02*
X152185000Y-81335000D01*
X149390000Y-84620000D02*
X152185000Y-81825000D01*
X149670000Y-80790000D02*
X150090000Y-80370000D01*
X150090000Y-80370000D02*
X151760000Y-80370000D01*
X141940000Y-84620000D02*
X149390000Y-84620000D01*
X151760000Y-80370000D02*
X152185000Y-80795000D01*
X142360000Y-83450000D02*
X147710000Y-83450000D01*
%TO.N,PA1*%
X129500000Y-106860000D02*
X129500000Y-94807900D01*
X149220000Y-116035000D02*
X149220000Y-114275000D01*
X129500000Y-94807900D02*
X127166100Y-92474000D01*
X151835000Y-114730000D02*
X151835000Y-114500000D01*
X149220000Y-114275000D02*
X150420000Y-113075000D01*
X152740000Y-113075000D02*
X153650000Y-112165000D01*
X116666100Y-92474000D02*
X115500000Y-91307900D01*
X140420000Y-117395000D02*
X141020000Y-117995000D01*
X115500000Y-91307900D02*
X115500000Y-87875000D01*
X127166100Y-92474000D02*
X116666100Y-92474000D01*
X141020000Y-117995000D02*
X149280000Y-117995000D01*
X153650000Y-108960000D02*
X152725000Y-108035000D01*
X151835000Y-115440000D02*
X151835000Y-114500000D01*
X140420000Y-115965000D02*
X140420000Y-117395000D01*
X130675000Y-108035000D02*
X129500000Y-106860000D01*
X153650000Y-112165000D02*
X153650000Y-108960000D01*
X150420000Y-113075000D02*
X152740000Y-113075000D01*
X152725000Y-108035000D02*
X130675000Y-108035000D01*
X149280000Y-117995000D02*
X151835000Y-115440000D01*
X149220000Y-116035000D02*
X150530000Y-116035000D01*
X150530000Y-116035000D02*
X151835000Y-114730000D01*
%TO.N,PA0*%
X150505000Y-109420000D02*
X149440000Y-110485000D01*
X129000000Y-109540000D02*
X129000000Y-94875000D01*
X151835000Y-109420000D02*
X150505000Y-109420000D01*
X127000000Y-92875000D02*
X116500000Y-92875000D01*
X140340000Y-109355000D02*
X140340000Y-110515000D01*
X150030000Y-108945000D02*
X140750000Y-108945000D01*
X116500000Y-92875000D02*
X115000000Y-91375000D01*
X140750000Y-108945000D02*
X140340000Y-109355000D01*
X115000000Y-91375000D02*
X115000000Y-87875000D01*
X140340000Y-110515000D02*
X129975000Y-110515000D01*
X151450000Y-109035000D02*
X151835000Y-109420000D01*
X129975000Y-110515000D02*
X129000000Y-109540000D01*
X150505000Y-109420000D02*
X150030000Y-108945000D01*
X129000000Y-94875000D02*
X127000000Y-92875000D01*
D34*
%TO.N,Net-(D1-A)*%
X182170000Y-107595000D02*
X177030000Y-107595000D01*
D35*
X182180000Y-107585000D02*
X182170000Y-107595000D01*
D34*
X182560000Y-111785000D02*
X182560000Y-107965000D01*
X182560000Y-107965000D02*
X182180000Y-107585000D01*
%TO.N,Net-(D2-A)*%
X178770000Y-139915000D02*
X178770000Y-136115000D01*
X178770000Y-136115000D02*
X177760000Y-135105000D01*
%TO.N,Net-(D5-A)*%
X179690000Y-84160000D02*
X179690000Y-79580000D01*
X178970000Y-78860000D02*
X177500000Y-78860000D01*
X179690000Y-79580000D02*
X178970000Y-78860000D01*
D35*
%TO.N,PhaseB*%
X109380000Y-156720000D02*
X109380000Y-154335000D01*
D37*
X239514000Y-115370000D02*
X239514000Y-111870000D01*
D35*
X141400000Y-167890000D02*
X131220000Y-157710000D01*
X217744000Y-167890000D02*
X141400000Y-167890000D01*
D36*
X225764000Y-111620000D02*
X225764000Y-124120000D01*
X222404000Y-127480000D02*
X195014000Y-127480000D01*
X225764000Y-124120000D02*
X222404000Y-127480000D01*
D37*
X239514000Y-117870000D02*
X239514000Y-146120000D01*
X239264000Y-111620000D02*
X233014000Y-111620000D01*
D33*
X198534000Y-105120000D02*
X219264000Y-105120000D01*
D37*
X239514000Y-111870000D02*
X239264000Y-111620000D01*
D35*
X239514000Y-146120000D02*
X217744000Y-167890000D01*
D36*
X233014000Y-111620000D02*
X225764000Y-111620000D01*
D35*
X110370000Y-157710000D02*
X109380000Y-156720000D01*
D33*
X219264000Y-105120000D02*
X225764000Y-111620000D01*
D35*
X131220000Y-157710000D02*
X110370000Y-157710000D01*
D36*
X195014000Y-108640000D02*
X198534000Y-105120000D01*
%TO.N,PhaseC*%
X224014000Y-156370000D02*
X224014000Y-140620000D01*
D35*
X140670000Y-168580000D02*
X130660000Y-158570000D01*
X241764000Y-146870000D02*
X220054000Y-168580000D01*
X96640000Y-158570000D02*
X95000000Y-156930000D01*
X130660000Y-158570000D02*
X96640000Y-158570000D01*
D36*
X195014000Y-160080000D02*
X220304000Y-160080000D01*
D35*
X233014000Y-116620000D02*
X240764000Y-116620000D01*
D36*
X220304000Y-160080000D02*
X224014000Y-156370000D01*
D35*
X240764000Y-116620000D02*
X241764000Y-117620000D01*
X220054000Y-168580000D02*
X140670000Y-168580000D01*
D36*
X233014000Y-116620000D02*
X233014000Y-122620000D01*
D35*
X95000000Y-156930000D02*
X95000000Y-154105000D01*
D36*
X195014000Y-141240000D02*
X197884000Y-138370000D01*
D35*
X241764000Y-117620000D02*
X241764000Y-146870000D01*
D33*
X221764000Y-138370000D02*
X231014000Y-138370000D01*
X197884000Y-138370000D02*
X221764000Y-138370000D01*
X231014000Y-138370000D02*
X233014000Y-136370000D01*
D36*
X224014000Y-140620000D02*
X221764000Y-138370000D01*
D33*
X233014000Y-136370000D02*
X233014000Y-122620000D01*
%TO.N,PhaseA*%
X227514000Y-65120000D02*
X205934000Y-65120000D01*
D37*
X237764000Y-106620000D02*
X238264000Y-107120000D01*
D35*
X226264000Y-156870000D02*
X216004000Y-167130000D01*
D36*
X195014000Y-76040000D02*
X198684000Y-72370000D01*
D35*
X126620000Y-156845000D02*
X123880000Y-154105000D01*
D36*
X195014000Y-76040000D02*
X195014000Y-66870000D01*
D37*
X233014000Y-106620000D02*
X233514000Y-106120000D01*
D36*
X220264000Y-72370000D02*
X223014000Y-75120000D01*
X223014000Y-75120000D02*
X223014000Y-91370000D01*
D35*
X216004000Y-167130000D02*
X142100000Y-167130000D01*
X131815000Y-156845000D02*
X126620000Y-156845000D01*
D33*
X196764000Y-65120000D02*
X205934000Y-65120000D01*
D37*
X238264000Y-117620000D02*
X238264000Y-144870000D01*
D33*
X233014000Y-106620000D02*
X233014000Y-70620000D01*
X233014000Y-70620000D02*
X227514000Y-65120000D01*
D37*
X238264000Y-110120000D02*
X238264000Y-107120000D01*
D33*
X195014000Y-66870000D02*
X196764000Y-65120000D01*
D36*
X198684000Y-72370000D02*
X220264000Y-72370000D01*
X223014000Y-91370000D02*
X219504000Y-94880000D01*
X219504000Y-94880000D02*
X195014000Y-94880000D01*
D37*
X238264000Y-144870000D02*
X226264000Y-156870000D01*
D35*
X142100000Y-167130000D02*
X131815000Y-156845000D01*
D37*
X237764000Y-106620000D02*
X233014000Y-106620000D01*
%TO.N,SWDIO*%
X109524000Y-75986000D02*
X109524000Y-75656822D01*
X109500000Y-76010000D02*
X109524000Y-75986000D01*
X121072000Y-64548000D02*
X121620000Y-64000000D01*
X130870000Y-63380000D02*
X130870000Y-60000000D01*
X120952446Y-64548000D02*
X121072000Y-64548000D01*
X109756822Y-75424000D02*
X110676000Y-75424000D01*
X111074000Y-74426446D02*
X120952446Y-64548000D01*
X111030000Y-75070000D02*
X111030000Y-74480000D01*
X130250000Y-64000000D02*
X130870000Y-63380000D01*
X109524000Y-75656822D02*
X109756822Y-75424000D01*
X111030000Y-74480000D02*
X111074000Y-74436000D01*
X111074000Y-74436000D02*
X111074000Y-74426446D01*
X110676000Y-75424000D02*
X111030000Y-75070000D01*
X121620000Y-64000000D02*
X130250000Y-64000000D01*
D35*
%TO.N,SWCLK*%
X106040000Y-73650000D02*
X106040000Y-73063662D01*
X106575000Y-78450000D02*
X104661000Y-78450000D01*
D37*
X118727454Y-63500000D02*
X113393727Y-68833727D01*
X128500000Y-60170000D02*
X128500000Y-62250000D01*
D35*
X104661000Y-78450000D02*
X104251000Y-78040000D01*
X104251000Y-78040000D02*
X104251000Y-75439000D01*
X106040000Y-73063662D02*
X109982662Y-69121000D01*
D37*
X113393727Y-68833727D02*
X113081454Y-69146000D01*
X128330000Y-60000000D02*
X128500000Y-60170000D01*
X127250000Y-63500000D02*
X118727454Y-63500000D01*
D35*
X104251000Y-75439000D02*
X106040000Y-73650000D01*
X113106454Y-69121000D02*
X113393727Y-68833727D01*
D37*
X128500000Y-62250000D02*
X127250000Y-63500000D01*
D35*
X109982662Y-69121000D02*
X113106454Y-69121000D01*
D37*
%TO.N,SWO*%
X124750000Y-63000000D02*
X125790000Y-61960000D01*
X118625000Y-63000000D02*
X124750000Y-63000000D01*
D35*
X108942454Y-68720000D02*
X112905000Y-68720000D01*
D37*
X125790000Y-61960000D02*
X125790000Y-60000000D01*
D35*
X105992454Y-71670000D02*
X108942454Y-68720000D01*
X106575000Y-81450000D02*
X105060000Y-81450000D01*
X103160000Y-79550000D02*
X103160000Y-72190000D01*
X105060000Y-81450000D02*
X103160000Y-79550000D01*
X103680000Y-71670000D02*
X105992454Y-71670000D01*
X103160000Y-72190000D02*
X103680000Y-71670000D01*
X112905000Y-68720000D02*
X118625000Y-63000000D01*
D37*
%TO.N,PA3_RX*%
X119310000Y-86527220D02*
X119309802Y-86527022D01*
X118730000Y-85950000D02*
X119310000Y-86530000D01*
X128640000Y-87290000D02*
X128930000Y-87000000D01*
X128755000Y-85935000D02*
X128930000Y-86110000D01*
X117925000Y-85950000D02*
X118730000Y-85950000D01*
X126590000Y-87290000D02*
X128640000Y-87290000D01*
X128930000Y-87000000D02*
X128930000Y-86110000D01*
X119310000Y-86530000D02*
X119310000Y-86527220D01*
D35*
%TO.N,PC6_TX*%
X114000000Y-76525000D02*
X114000000Y-74830000D01*
X116830000Y-74420000D02*
X117860000Y-73390000D01*
X117860000Y-73390000D02*
X118740000Y-73390000D01*
X114000000Y-74830000D02*
X114410000Y-74420000D01*
X114410000Y-74420000D02*
X116830000Y-74420000D01*
%TO.N,PC0_ADC*%
X108000000Y-94875000D02*
X110000000Y-94875000D01*
X87310000Y-120065000D02*
X88641000Y-121396000D01*
X102360000Y-116515000D02*
X102360000Y-98015000D01*
X110000000Y-103875000D02*
X108000000Y-103875000D01*
X102360000Y-98015000D02*
X105500000Y-94875000D01*
X109701300Y-91375000D02*
X112000000Y-89076300D01*
X110260000Y-95135000D02*
X110260000Y-103615000D01*
X105500000Y-94875000D02*
X108000000Y-94875000D01*
X108000000Y-94875000D02*
X108000000Y-91875000D01*
X97479000Y-121396000D02*
X102360000Y-116515000D01*
X110260000Y-103615000D02*
X110000000Y-103875000D01*
X112000000Y-89076300D02*
X112000000Y-87875000D01*
X108500000Y-91375000D02*
X109701300Y-91375000D01*
X108000000Y-91875000D02*
X108500000Y-91375000D01*
X110000000Y-94875000D02*
X110260000Y-95135000D01*
X88641000Y-121396000D02*
X97479000Y-121396000D01*
%TO.N,PC1_ADC*%
X113500000Y-109375000D02*
X110750000Y-112125000D01*
X110250000Y-117875000D02*
X102500000Y-117875000D01*
X117000000Y-94875000D02*
X115500000Y-93375000D01*
X102500000Y-117875000D02*
X101880000Y-118495000D01*
X119000000Y-94875000D02*
X119500000Y-95375000D01*
X115500000Y-93375000D02*
X110500000Y-93375000D01*
X112500000Y-89143400D02*
X112500000Y-87875000D01*
X110000000Y-91643400D02*
X112500000Y-89143400D01*
X110750000Y-117375000D02*
X110250000Y-117875000D01*
X114500000Y-94875000D02*
X113500000Y-95875000D01*
X110750000Y-112125000D02*
X110750000Y-117375000D01*
X110000000Y-92875000D02*
X110000000Y-91643400D01*
X117000000Y-94875000D02*
X119000000Y-94875000D01*
X113500000Y-95875000D02*
X113500000Y-109375000D01*
X119500000Y-95375000D02*
X119500000Y-102875000D01*
X118500000Y-103875000D02*
X117000000Y-103875000D01*
X110500000Y-93375000D02*
X110000000Y-92875000D01*
X101880000Y-118495000D02*
X101880000Y-120295000D01*
X117000000Y-94875000D02*
X114500000Y-94875000D01*
X119500000Y-102875000D02*
X118500000Y-103875000D01*
%TO.N,PC7_RX*%
X114000000Y-73375000D02*
X116000000Y-73375000D01*
X113500000Y-73875000D02*
X114000000Y-73375000D01*
X113500000Y-76525000D02*
X113500000Y-73875000D01*
%TO.N,PC2_ADC*%
X110401000Y-91809500D02*
X113000000Y-89210500D01*
X124000000Y-94875000D02*
X126000000Y-94875000D01*
X126000000Y-94875000D02*
X124500000Y-93375000D01*
X123000000Y-95875000D02*
X124000000Y-94875000D01*
X123000000Y-109375000D02*
X123000000Y-95875000D01*
X113000000Y-89210500D02*
X113000000Y-87875000D01*
X124500000Y-93375000D02*
X116067100Y-93375000D01*
X126000000Y-94875000D02*
X127000000Y-94875000D01*
X110666100Y-92974000D02*
X110401000Y-92708900D01*
X120830000Y-120295000D02*
X122000000Y-119125000D01*
X116067100Y-93375000D02*
X115666100Y-92974000D01*
X116380000Y-120295000D02*
X120830000Y-120295000D01*
X127000000Y-94875000D02*
X127500000Y-95375000D01*
X127000000Y-103875000D02*
X126000000Y-103875000D01*
X122000000Y-119125000D02*
X122000000Y-110375000D01*
X127500000Y-103375000D02*
X127000000Y-103875000D01*
X115666100Y-92974000D02*
X110666100Y-92974000D01*
X122000000Y-110375000D02*
X123000000Y-109375000D01*
X110401000Y-92708900D02*
X110401000Y-91809500D01*
X127500000Y-95375000D02*
X127500000Y-103375000D01*
%TO.N,PA2_TX*%
X116000000Y-87875000D02*
X116000000Y-91080000D01*
X116993000Y-92073000D02*
X132097000Y-92073000D01*
X132097000Y-92073000D02*
X132800000Y-91370000D01*
X116000000Y-91080000D02*
X116993000Y-92073000D01*
X132800000Y-91370000D02*
X132800000Y-86160000D01*
D34*
%TO.N,Net-(Q1-Pad1)*%
X193120000Y-97420000D02*
X195014000Y-97420000D01*
X190330000Y-94630000D02*
X193120000Y-97420000D01*
D35*
X183995000Y-94655000D02*
X184020000Y-94680000D01*
D34*
X167450000Y-94655000D02*
X183995000Y-94655000D01*
%TO.N,Net-(Q2-Pad1)*%
X191870000Y-73050000D02*
X192330000Y-73510000D01*
X192330000Y-80800000D02*
X192650000Y-81120000D01*
X192330000Y-73510000D02*
X192330000Y-80800000D01*
X167460000Y-73010000D02*
X180220000Y-73010000D01*
X186510000Y-73050000D02*
X191870000Y-73050000D01*
X192650000Y-81120000D02*
X195014000Y-81120000D01*
D35*
X180220000Y-73010000D02*
X180240000Y-73030000D01*
D34*
%TO.N,Net-(Q3-Pad1)*%
X194670000Y-115820000D02*
X195014000Y-115476000D01*
X190860000Y-113480000D02*
X193200000Y-115820000D01*
X182950000Y-100840000D02*
X183790000Y-101680000D01*
X190860000Y-108720000D02*
X190860000Y-113480000D01*
X193200000Y-115820000D02*
X194670000Y-115820000D01*
X167090000Y-100840000D02*
X182950000Y-100840000D01*
X195014000Y-115476000D02*
X195014000Y-113720000D01*
D35*
X194914000Y-113620000D02*
X195014000Y-113720000D01*
D34*
%TO.N,Net-(Q4-Pad1)*%
X182670000Y-122740000D02*
X182690000Y-122720000D01*
X167100000Y-122740000D02*
X182670000Y-122740000D01*
X191770000Y-129460000D02*
X192330000Y-130020000D01*
X190620000Y-122780000D02*
X191770000Y-123930000D01*
X192330000Y-130020000D02*
X195014000Y-130020000D01*
X191770000Y-123930000D02*
X191770000Y-129460000D01*
%TO.N,Net-(Q5-Pad1)*%
X176490000Y-155070000D02*
X189200000Y-155070000D01*
X175800000Y-147700000D02*
X175800000Y-154380000D01*
X194544000Y-164530000D02*
X195014000Y-164060000D01*
X190880000Y-156750000D02*
X190880000Y-163840000D01*
X195014000Y-164060000D02*
X195014000Y-162620000D01*
X191570000Y-164530000D02*
X194544000Y-164530000D01*
X190880000Y-163840000D02*
X191570000Y-164530000D01*
X175800000Y-154380000D02*
X176490000Y-155070000D01*
X189200000Y-155070000D02*
X190880000Y-156750000D01*
D35*
%TO.N,Net-(Q6-Pad1)*%
X195450000Y-146075000D02*
X195500000Y-146125000D01*
X195014000Y-147396000D02*
X195014000Y-146320000D01*
D34*
X182575000Y-128235000D02*
X183440000Y-129100000D01*
X193840000Y-148570000D02*
X195014000Y-147396000D01*
X190500000Y-147290000D02*
X191780000Y-148570000D01*
X167120000Y-128235000D02*
X182575000Y-128235000D01*
X191780000Y-148570000D02*
X193840000Y-148570000D01*
X183440000Y-129100000D02*
X183440000Y-146540000D01*
D35*
%TO.N,Net-(U5A-+)*%
X114000000Y-125875000D02*
X114000000Y-141875000D01*
X114500000Y-142375000D02*
X115760000Y-142375000D01*
X114000000Y-141875000D02*
X114500000Y-142375000D01*
X116260000Y-139605000D02*
X116260000Y-142875000D01*
X116260000Y-142875000D02*
X116260000Y-146855000D01*
X116380000Y-125375000D02*
X114500000Y-125375000D01*
X115760000Y-142375000D02*
X116260000Y-142875000D01*
X114500000Y-125375000D02*
X114000000Y-125875000D01*
X116260000Y-154105000D02*
X116260000Y-146855000D01*
%TO.N,Net-(U7A-+)*%
X100000000Y-125375000D02*
X99500000Y-125875000D01*
X101760000Y-139835000D02*
X101760000Y-142875000D01*
X100000000Y-142375000D02*
X101260000Y-142375000D01*
X101760000Y-154335000D02*
X101760000Y-147085000D01*
X99500000Y-141875000D02*
X100000000Y-142375000D01*
X101880000Y-125375000D02*
X100000000Y-125375000D01*
X101260000Y-142375000D02*
X101760000Y-142875000D01*
X99500000Y-125875000D02*
X99500000Y-141875000D01*
X101760000Y-142875000D02*
X101760000Y-147085000D01*
%TO.N,Net-(U8A-+)*%
X87190000Y-142875000D02*
X87190000Y-142565000D01*
X86500000Y-141875000D02*
X85000000Y-141875000D01*
X87190000Y-142565000D02*
X86500000Y-141875000D01*
X85230000Y-125145000D02*
X84500000Y-125875000D01*
X87190000Y-146665000D02*
X87380000Y-146855000D01*
X85000000Y-141875000D02*
X84500000Y-141375000D01*
X84500000Y-125875000D02*
X84500000Y-141375000D01*
X87190000Y-142875000D02*
X87190000Y-146665000D01*
X87380000Y-154105000D02*
X87380000Y-146855000D01*
X87190000Y-139605000D02*
X87190000Y-142875000D01*
X87310000Y-125145000D02*
X85230000Y-125145000D01*
%TO.N,Net-(U5A--)*%
X89000000Y-138875000D02*
X89730000Y-139605000D01*
X102960000Y-122835000D02*
X103500000Y-123375000D01*
X97270000Y-139605000D02*
X94810000Y-139605000D01*
X120500000Y-138605000D02*
X121500000Y-139605000D01*
X120000000Y-121875000D02*
X120500000Y-122375000D01*
X118730000Y-139605000D02*
X121500000Y-139605000D01*
X120500000Y-122375000D02*
X120500000Y-138605000D01*
X101880000Y-122835000D02*
X102960000Y-122835000D01*
X104000000Y-139875000D02*
X109340000Y-139875000D01*
X103500000Y-123375000D02*
X103500000Y-139375000D01*
X118000000Y-123375000D02*
X118000000Y-138875000D01*
X117460000Y-122835000D02*
X118000000Y-123375000D01*
X118000000Y-138875000D02*
X118730000Y-139605000D01*
X89000000Y-122875000D02*
X89000000Y-138875000D01*
X98000000Y-122375000D02*
X98000000Y-138875000D01*
X112500000Y-122375000D02*
X113000000Y-121875000D01*
X87310000Y-122605000D02*
X88730000Y-122605000D01*
X105000000Y-121875000D02*
X98500000Y-121875000D01*
X121500000Y-139605000D02*
X123880000Y-139605000D01*
X109380000Y-139835000D02*
X106460000Y-139835000D01*
X112500000Y-139375000D02*
X112500000Y-122375000D01*
X109380000Y-139835000D02*
X112040000Y-139835000D01*
X88730000Y-122605000D02*
X89000000Y-122875000D01*
X105500000Y-138875000D02*
X105500000Y-122375000D01*
X98500000Y-121875000D02*
X98000000Y-122375000D01*
X109340000Y-139875000D02*
X109380000Y-139835000D01*
X116380000Y-122835000D02*
X117460000Y-122835000D01*
X103500000Y-139375000D02*
X104000000Y-139875000D01*
X106460000Y-139835000D02*
X105500000Y-138875000D01*
X98000000Y-138875000D02*
X97270000Y-139605000D01*
X105500000Y-122375000D02*
X105000000Y-121875000D01*
X89730000Y-139605000D02*
X94810000Y-139605000D01*
X113000000Y-121875000D02*
X120000000Y-121875000D01*
X112040000Y-139835000D02*
X112500000Y-139375000D01*
%TO.N,Net-(U1-HO)*%
X159805000Y-73045000D02*
X159840000Y-73010000D01*
D34*
X159805000Y-76255000D02*
X159805000Y-73045000D01*
D35*
%TO.N,Net-(U1-LO)*%
X159925000Y-91375000D02*
X159805000Y-91495000D01*
X159830000Y-91520000D02*
X159805000Y-91495000D01*
D34*
X159830000Y-94655000D02*
X159830000Y-91520000D01*
%TO.N,Net-(U2-HO)*%
X159455000Y-104340000D02*
X159455000Y-100855000D01*
D35*
X159455000Y-100855000D02*
X159470000Y-100840000D01*
%TO.N,Net-(U2-LO)*%
X159455000Y-122715000D02*
X159480000Y-122740000D01*
X159575000Y-119460000D02*
X159455000Y-119580000D01*
D34*
X159455000Y-119580000D02*
X159455000Y-122715000D01*
D35*
%TO.N,Net-(U3-HO)*%
X159490000Y-128245000D02*
X159500000Y-128235000D01*
D34*
X159490000Y-132450000D02*
X159490000Y-128245000D01*
%TO.N,Net-(U3-LO)*%
X168180000Y-147700000D02*
X159500000Y-147700000D01*
D35*
X159500000Y-147700000D02*
X159490000Y-147690000D01*
X159570000Y-147610000D02*
X159570000Y-147690000D01*
X159570000Y-147690000D02*
X159490000Y-147690000D01*
%TO.N,Net-(U4-BOOT0)*%
X106740000Y-76460000D02*
X105540000Y-76460000D01*
X106575000Y-83950000D02*
X107760000Y-83950000D01*
X108380000Y-78100000D02*
X106740000Y-76460000D01*
X108380000Y-83330000D02*
X108380000Y-78100000D01*
X107760000Y-83950000D02*
X108380000Y-83330000D01*
D36*
%TO.N,Net-(U8C-V+)*%
X93260000Y-112870000D02*
X93260000Y-118395000D01*
X93260000Y-118395000D02*
X94930000Y-120065000D01*
%TO.N,Net-(U7C-V+)*%
X113500000Y-112875000D02*
X113500000Y-119625000D01*
X112830000Y-120295000D02*
X109500000Y-120295000D01*
X113500000Y-119625000D02*
X112830000Y-120295000D01*
%TO.N,Net-(U5C-V+)*%
X124000000Y-120295000D02*
X124000000Y-113625000D01*
X124000000Y-113625000D02*
X124750000Y-112875000D01*
%TD*%
%TA.AperFunction,Conductor*%
%TO.N,PhaseB*%
G36*
X224981643Y-107147236D02*
G01*
X224989668Y-107154746D01*
X227325275Y-109543535D01*
X229839694Y-109532392D01*
X229903568Y-109550741D01*
X229903826Y-109550261D01*
X229906050Y-109551454D01*
X229906515Y-109551588D01*
X229907724Y-109552352D01*
X229907724Y-109552353D01*
X229907728Y-109552354D01*
X229907730Y-109552356D01*
X230039036Y-109611166D01*
X230214547Y-109661312D01*
X230282811Y-109675806D01*
X230312980Y-109680061D01*
X230316611Y-109680574D01*
X230316613Y-109680574D01*
X230316633Y-109680577D01*
X230386250Y-109685532D01*
X232096255Y-109688885D01*
X232163256Y-109708701D01*
X232208907Y-109761595D01*
X232218715Y-109830773D01*
X232189566Y-109894271D01*
X232158013Y-109920272D01*
X231956143Y-110036823D01*
X231858953Y-110111399D01*
X231858953Y-110111400D01*
X232766511Y-111018958D01*
X232706110Y-111043978D01*
X232599649Y-111115112D01*
X232509112Y-111205649D01*
X232437978Y-111312110D01*
X232412958Y-111372511D01*
X231505400Y-110464953D01*
X231505399Y-110464953D01*
X231430823Y-110562143D01*
X231306285Y-110777847D01*
X231306283Y-110777851D01*
X231210973Y-111007950D01*
X231146508Y-111248536D01*
X231114000Y-111495466D01*
X231114000Y-111744533D01*
X231146508Y-111991463D01*
X231210973Y-112232049D01*
X231306283Y-112462148D01*
X231306288Y-112462159D01*
X231430813Y-112677841D01*
X231430819Y-112677849D01*
X231505400Y-112775045D01*
X232412958Y-111867487D01*
X232437978Y-111927890D01*
X232509112Y-112034351D01*
X232599649Y-112124888D01*
X232706110Y-112196022D01*
X232766511Y-112221041D01*
X231858953Y-113128598D01*
X231956150Y-113203180D01*
X231956158Y-113203186D01*
X232171840Y-113327711D01*
X232171851Y-113327716D01*
X232401950Y-113423026D01*
X232642536Y-113487491D01*
X232889466Y-113520000D01*
X233138534Y-113520000D01*
X233385463Y-113487491D01*
X233626049Y-113423026D01*
X233856148Y-113327716D01*
X233856159Y-113327711D01*
X234071855Y-113203178D01*
X234169045Y-113128600D01*
X234169045Y-113128597D01*
X233261488Y-112221041D01*
X233321890Y-112196022D01*
X233428351Y-112124888D01*
X233518888Y-112034351D01*
X233590022Y-111927890D01*
X233615041Y-111867489D01*
X234522597Y-112775045D01*
X234522600Y-112775045D01*
X234597178Y-112677855D01*
X234721711Y-112462159D01*
X234721716Y-112462148D01*
X234778770Y-112324409D01*
X234822611Y-112270006D01*
X234888905Y-112247941D01*
X234956604Y-112265220D01*
X235004215Y-112316357D01*
X235017326Y-112373007D01*
X235001148Y-114125537D01*
X234980845Y-114192392D01*
X234927621Y-114237657D01*
X234875541Y-114248382D01*
X225038651Y-114120502D01*
X224971873Y-114099947D01*
X224968479Y-114097621D01*
X223678465Y-113181755D01*
X221918653Y-111932348D01*
X221875385Y-111877488D01*
X221868645Y-111807944D01*
X221885716Y-111764835D01*
X224796292Y-107175029D01*
X224848816Y-107128959D01*
X224917913Y-107118597D01*
X224981643Y-107147236D01*
G37*
%TD.AperFunction*%
%TA.AperFunction,Conductor*%
G36*
X234952482Y-109694485D02*
G01*
X235019481Y-109714301D01*
X235065132Y-109767195D01*
X235076142Y-109823344D01*
X235033445Y-110912130D01*
X235011148Y-110978347D01*
X234956592Y-111021997D01*
X234887097Y-111029223D01*
X234824727Y-110997730D01*
X234794979Y-110954723D01*
X234721719Y-110777856D01*
X234721711Y-110777840D01*
X234597186Y-110562158D01*
X234597180Y-110562150D01*
X234522598Y-110464953D01*
X233615041Y-111372510D01*
X233590022Y-111312110D01*
X233518888Y-111205649D01*
X233428351Y-111115112D01*
X233321890Y-111043978D01*
X233261487Y-111018957D01*
X234169045Y-110111400D01*
X234071849Y-110036819D01*
X234071841Y-110036813D01*
X233876243Y-109923884D01*
X233828027Y-109873317D01*
X233814805Y-109804710D01*
X233840773Y-109739845D01*
X233897687Y-109699317D01*
X233938483Y-109692497D01*
X234952482Y-109694485D01*
G37*
%TD.AperFunction*%
%TD*%
%TA.AperFunction,Conductor*%
%TO.N,+12V*%
G36*
X196568203Y-142004710D02*
G01*
X196636744Y-142000000D01*
X197876206Y-142000000D01*
X197943245Y-142019685D01*
X197989000Y-142072489D01*
X198000206Y-142123794D01*
X198009793Y-147885794D01*
X197990220Y-147952866D01*
X197937492Y-147998709D01*
X197885793Y-148010000D01*
X196484826Y-148010000D01*
X196417787Y-147990315D01*
X196372032Y-147937511D01*
X196360829Y-147885177D01*
X196363028Y-147554184D01*
X196380482Y-147496170D01*
X196378546Y-147495113D01*
X196382791Y-147487336D01*
X196382796Y-147487331D01*
X196433091Y-147352483D01*
X196439500Y-147292873D01*
X196439499Y-145347128D01*
X196433091Y-145287517D01*
X196387016Y-145163985D01*
X196379203Y-145119837D01*
X196380000Y-145000000D01*
X196379999Y-144999999D01*
X196288509Y-145000268D01*
X196221412Y-144980781D01*
X196213835Y-144975536D01*
X196181330Y-144951203D01*
X196181328Y-144951202D01*
X196046482Y-144900908D01*
X196046483Y-144900908D01*
X195986883Y-144894501D01*
X195986881Y-144894500D01*
X195986873Y-144894500D01*
X195986865Y-144894500D01*
X195826308Y-144894500D01*
X195759269Y-144874815D01*
X195738627Y-144858181D01*
X195234700Y-144354254D01*
X195305312Y-144325006D01*
X195406040Y-144257702D01*
X195491702Y-144172040D01*
X195559006Y-144071312D01*
X195588254Y-144000701D01*
X196182964Y-144595411D01*
X196182964Y-144595410D01*
X196232769Y-144526862D01*
X196334599Y-144327010D01*
X196334600Y-144327007D01*
X196403910Y-144113689D01*
X196439000Y-143892149D01*
X196439000Y-143667850D01*
X196403910Y-143446310D01*
X196334600Y-143232992D01*
X196334599Y-143232989D01*
X196232768Y-143033136D01*
X196182964Y-142964588D01*
X196182964Y-142964587D01*
X195588253Y-143559298D01*
X195559006Y-143488688D01*
X195491702Y-143387960D01*
X195406040Y-143302298D01*
X195305312Y-143234994D01*
X195234700Y-143205745D01*
X195837707Y-142602738D01*
X195845561Y-142565352D01*
X195894613Y-142515595D01*
X195954815Y-142500000D01*
X196360000Y-142500000D01*
X196369999Y-142490001D01*
X196370000Y-142490000D01*
X196362582Y-142126529D01*
X196380894Y-142059103D01*
X196432754Y-142012280D01*
X196486556Y-142000000D01*
X196504836Y-142000000D01*
X196568203Y-142004710D01*
G37*
%TD.AperFunction*%
%TA.AperFunction,Conductor*%
G36*
X193143950Y-142505172D02*
G01*
X193484655Y-142606786D01*
X193486620Y-142607346D01*
X193496136Y-142610063D01*
X193501769Y-142611599D01*
X193513238Y-142614582D01*
X193656400Y-142628941D01*
X193726205Y-142625949D01*
X193867613Y-142599393D01*
X193995811Y-142534074D01*
X194001131Y-142530323D01*
X194067261Y-142507783D01*
X194135083Y-142524574D01*
X194183061Y-142575366D01*
X194188063Y-142600509D01*
X194793299Y-143205745D01*
X194722688Y-143234994D01*
X194621960Y-143302298D01*
X194536298Y-143387960D01*
X194468994Y-143488688D01*
X194439745Y-143559299D01*
X193845034Y-142964588D01*
X193795229Y-143033140D01*
X193693400Y-143232989D01*
X193693399Y-143232992D01*
X193624089Y-143446310D01*
X193589000Y-143667850D01*
X193589000Y-143892149D01*
X193624089Y-144113689D01*
X193693399Y-144327007D01*
X193693400Y-144327010D01*
X193795233Y-144526866D01*
X193845032Y-144595410D01*
X193845034Y-144595411D01*
X194439745Y-144000700D01*
X194468994Y-144071312D01*
X194536298Y-144172040D01*
X194621960Y-144257702D01*
X194722688Y-144325006D01*
X194793299Y-144354254D01*
X194289371Y-144858181D01*
X194228048Y-144891666D01*
X194201691Y-144894500D01*
X194041130Y-144894500D01*
X194041123Y-144894501D01*
X193981516Y-144900908D01*
X193846671Y-144951202D01*
X193846670Y-144951203D01*
X193804110Y-144983062D01*
X193738645Y-145007477D01*
X193730167Y-145007792D01*
X193103870Y-145009635D01*
X193036773Y-144990148D01*
X192990863Y-144937479D01*
X192979506Y-144886130D01*
X192977278Y-144327010D01*
X192970496Y-142624494D01*
X192973080Y-142615559D01*
X192971757Y-142606353D01*
X192982635Y-142582532D01*
X192989913Y-142557377D01*
X192996917Y-142551258D01*
X193000782Y-142542797D01*
X193022814Y-142528637D01*
X193042535Y-142511412D01*
X193053296Y-142509048D01*
X193059560Y-142505023D01*
X193094495Y-142500000D01*
X193108510Y-142500000D01*
X193143950Y-142505172D01*
G37*
%TD.AperFunction*%
%TD*%
%TA.AperFunction,Conductor*%
%TO.N,PhaseC*%
G36*
X197431953Y-135860074D02*
G01*
X197478825Y-135911889D01*
X197482093Y-135919260D01*
X198092333Y-137426368D01*
X198099247Y-137495894D01*
X198094261Y-137514364D01*
X196736360Y-141342070D01*
X196735617Y-141343451D01*
X196735557Y-141344269D01*
X196718556Y-141375199D01*
X196659303Y-141453894D01*
X196603253Y-141495609D01*
X196533548Y-141500399D01*
X196472318Y-141466744D01*
X196439004Y-141405328D01*
X196437771Y-141359900D01*
X196439000Y-141352144D01*
X196439000Y-141127850D01*
X196403910Y-140906310D01*
X196334600Y-140692992D01*
X196334599Y-140692989D01*
X196232768Y-140493136D01*
X196182964Y-140424588D01*
X196182964Y-140424587D01*
X195588253Y-141019298D01*
X195559006Y-140948688D01*
X195491702Y-140847960D01*
X195406040Y-140762298D01*
X195305312Y-140694994D01*
X195234700Y-140665745D01*
X195829411Y-140071034D01*
X195829410Y-140071032D01*
X195760866Y-140021233D01*
X195561010Y-139919400D01*
X195561007Y-139919399D01*
X195347689Y-139850089D01*
X195126149Y-139815000D01*
X194901851Y-139815000D01*
X194680310Y-139850089D01*
X194466992Y-139919399D01*
X194466989Y-139919400D01*
X194267140Y-140021229D01*
X194198588Y-140071034D01*
X194793299Y-140665745D01*
X194722688Y-140694994D01*
X194621960Y-140762298D01*
X194536298Y-140847960D01*
X194468994Y-140948688D01*
X194439745Y-141019299D01*
X193845034Y-140424588D01*
X193795229Y-140493140D01*
X193693400Y-140692989D01*
X193693399Y-140692992D01*
X193624089Y-140906310D01*
X193589000Y-141127850D01*
X193589000Y-141352149D01*
X193624089Y-141573689D01*
X193693399Y-141787007D01*
X193693401Y-141787010D01*
X193775045Y-141947246D01*
X193787941Y-142015915D01*
X193761665Y-142080656D01*
X193704558Y-142120913D01*
X193634753Y-142123905D01*
X193629120Y-142122369D01*
X192937474Y-141916088D01*
X192878857Y-141878064D01*
X192850102Y-141814385D01*
X192848923Y-141798723D01*
X192829113Y-140119756D01*
X192810004Y-138500237D01*
X192771926Y-136063275D01*
X192790561Y-135995936D01*
X192842644Y-135949362D01*
X192893261Y-135937366D01*
X197364510Y-135841826D01*
X197431953Y-135860074D01*
G37*
%TD.AperFunction*%
%TD*%
%TA.AperFunction,Conductor*%
%TO.N,+12V*%
G36*
X198686825Y-75489337D02*
G01*
X198753755Y-75509381D01*
X198799226Y-75562431D01*
X198810156Y-75613177D01*
X198819842Y-83235842D01*
X198800243Y-83302907D01*
X198747497Y-83348729D01*
X198695842Y-83360000D01*
X196513653Y-83360000D01*
X196446614Y-83340315D01*
X196400859Y-83287511D01*
X196389653Y-83236348D01*
X196388934Y-82980633D01*
X196387018Y-82298723D01*
X196394834Y-82255053D01*
X196433091Y-82152483D01*
X196439500Y-82092873D01*
X196439499Y-80147128D01*
X196433091Y-80087517D01*
X196388163Y-79967061D01*
X196380348Y-79924088D01*
X196380000Y-79800000D01*
X196287786Y-79800000D01*
X196220747Y-79780315D01*
X196213475Y-79775267D01*
X196212941Y-79774867D01*
X196181331Y-79751204D01*
X196181329Y-79751203D01*
X196181328Y-79751202D01*
X196046482Y-79700908D01*
X196046483Y-79700908D01*
X195986883Y-79694501D01*
X195986881Y-79694500D01*
X195986873Y-79694500D01*
X195986865Y-79694500D01*
X195826308Y-79694500D01*
X195759269Y-79674815D01*
X195738627Y-79658181D01*
X195234700Y-79154254D01*
X195305312Y-79125006D01*
X195406040Y-79057702D01*
X195491702Y-78972040D01*
X195559006Y-78871312D01*
X195588254Y-78800701D01*
X196182964Y-79395411D01*
X196182964Y-79395410D01*
X196232769Y-79326862D01*
X196334599Y-79127010D01*
X196334600Y-79127007D01*
X196403910Y-78913689D01*
X196439000Y-78692149D01*
X196439000Y-78467850D01*
X196403910Y-78246310D01*
X196334600Y-78032992D01*
X196334599Y-78032989D01*
X196232768Y-77833136D01*
X196182964Y-77764588D01*
X196182964Y-77764587D01*
X195588253Y-78359298D01*
X195559006Y-78288688D01*
X195491702Y-78187960D01*
X195406040Y-78102298D01*
X195305312Y-78034994D01*
X195234700Y-78005745D01*
X195829410Y-77411035D01*
X195828942Y-77405087D01*
X195843306Y-77336710D01*
X195892356Y-77286953D01*
X195952168Y-77271359D01*
X196390000Y-77270000D01*
X196390000Y-77269999D01*
X196414661Y-77269923D01*
X196421715Y-77266057D01*
X196454674Y-77263345D01*
X196866934Y-77284669D01*
X196969998Y-77290000D01*
X196969998Y-77289999D01*
X196970000Y-77290000D01*
X196958163Y-76218809D01*
X196977105Y-76151559D01*
X196995307Y-76128934D01*
X197005528Y-76118907D01*
X197047929Y-76063373D01*
X197118079Y-75937754D01*
X197151478Y-75850736D01*
X197193878Y-75795204D01*
X197205712Y-75787515D01*
X197344691Y-75708100D01*
X197406871Y-75666160D01*
X197435686Y-75643441D01*
X197490974Y-75592764D01*
X197556755Y-75522806D01*
X197617018Y-75487451D01*
X197647754Y-75483751D01*
X198686825Y-75489337D01*
G37*
%TD.AperFunction*%
%TA.AperFunction,Conductor*%
G36*
X194141694Y-77296665D02*
G01*
X194187613Y-77349326D01*
X194198597Y-77410916D01*
X194198587Y-77411033D01*
X194793299Y-78005745D01*
X194722688Y-78034994D01*
X194621960Y-78102298D01*
X194536298Y-78187960D01*
X194468994Y-78288688D01*
X194439745Y-78359299D01*
X193845034Y-77764588D01*
X193795229Y-77833140D01*
X193693400Y-78032989D01*
X193693399Y-78032992D01*
X193624089Y-78246310D01*
X193589000Y-78467850D01*
X193589000Y-78692149D01*
X193624089Y-78913689D01*
X193693399Y-79127007D01*
X193693400Y-79127010D01*
X193795233Y-79326866D01*
X193845032Y-79395410D01*
X193845034Y-79395411D01*
X194439745Y-78800700D01*
X194468994Y-78871312D01*
X194536298Y-78972040D01*
X194621960Y-79057702D01*
X194722688Y-79125006D01*
X194793299Y-79154254D01*
X194289371Y-79658181D01*
X194228048Y-79691666D01*
X194201691Y-79694500D01*
X194041130Y-79694500D01*
X194041123Y-79694501D01*
X193981516Y-79700908D01*
X193846671Y-79751202D01*
X193846669Y-79751204D01*
X193814525Y-79775267D01*
X193749061Y-79799684D01*
X193740214Y-79800000D01*
X193294000Y-79800000D01*
X193226961Y-79780315D01*
X193181206Y-79727511D01*
X193170000Y-79676000D01*
X193170000Y-77403614D01*
X193189685Y-77336575D01*
X193242489Y-77290820D01*
X193293609Y-77279616D01*
X194074599Y-77277190D01*
X194141694Y-77296665D01*
G37*
%TD.AperFunction*%
%TD*%
%TA.AperFunction,Conductor*%
%TO.N,+12V*%
G36*
X197943039Y-109009685D02*
G01*
X197988794Y-109062489D01*
X198000000Y-109114000D01*
X198000000Y-114876000D01*
X197980315Y-114943039D01*
X197927511Y-114988794D01*
X197876000Y-115000000D01*
X196519367Y-115000000D01*
X196452328Y-114980315D01*
X196406573Y-114927511D01*
X196396629Y-114858353D01*
X196403185Y-114832668D01*
X196433090Y-114752485D01*
X196433091Y-114752483D01*
X196439500Y-114692873D01*
X196439499Y-112747128D01*
X196433091Y-112687517D01*
X196382796Y-112552669D01*
X196382795Y-112552668D01*
X196378548Y-112544890D01*
X196380473Y-112543838D01*
X196360315Y-112489785D01*
X196360000Y-112480946D01*
X196360000Y-112400000D01*
X196287786Y-112400000D01*
X196220747Y-112380315D01*
X196213475Y-112375267D01*
X196212941Y-112374867D01*
X196181331Y-112351204D01*
X196181329Y-112351203D01*
X196181328Y-112351202D01*
X196046482Y-112300908D01*
X196046483Y-112300908D01*
X195986883Y-112294501D01*
X195986881Y-112294500D01*
X195986873Y-112294500D01*
X195986865Y-112294500D01*
X195826308Y-112294500D01*
X195759269Y-112274815D01*
X195738627Y-112258181D01*
X195234700Y-111754254D01*
X195305312Y-111725006D01*
X195406040Y-111657702D01*
X195491702Y-111572040D01*
X195559006Y-111471312D01*
X195588254Y-111400701D01*
X196182964Y-111995411D01*
X196182964Y-111995410D01*
X196232769Y-111926862D01*
X196334599Y-111727010D01*
X196334600Y-111727007D01*
X196403910Y-111513689D01*
X196439000Y-111292149D01*
X196439000Y-111067850D01*
X196403910Y-110846310D01*
X196334600Y-110632992D01*
X196334599Y-110632989D01*
X196232768Y-110433136D01*
X196182964Y-110364588D01*
X196182964Y-110364587D01*
X195588253Y-110959298D01*
X195559006Y-110888688D01*
X195491702Y-110787960D01*
X195406040Y-110702298D01*
X195305312Y-110634994D01*
X195234700Y-110605745D01*
X195840446Y-110000000D01*
X196350000Y-110000000D01*
X196350000Y-109991228D01*
X196350025Y-109988749D01*
X196350643Y-109957868D01*
X196366327Y-109173640D01*
X196387347Y-109107011D01*
X196441055Y-109062321D01*
X196491692Y-109052131D01*
X196631577Y-109053700D01*
X196631577Y-109053699D01*
X196631579Y-109053700D01*
X196770077Y-109014716D01*
X196794810Y-109003754D01*
X196801852Y-109000634D01*
X196852093Y-108990000D01*
X197876000Y-108990000D01*
X197943039Y-109009685D01*
G37*
%TD.AperFunction*%
%TA.AperFunction,Conductor*%
G36*
X193163619Y-110069044D02*
G01*
X193179328Y-110074225D01*
X193215571Y-110086179D01*
X193645065Y-110162470D01*
X193667589Y-110165949D01*
X193678665Y-110167405D01*
X193701288Y-110169862D01*
X193737733Y-110167778D01*
X193805782Y-110183602D01*
X193854477Y-110233707D01*
X193868353Y-110302185D01*
X193845127Y-110364459D01*
X193795232Y-110433134D01*
X193693400Y-110632989D01*
X193693399Y-110632992D01*
X193624089Y-110846310D01*
X193589000Y-111067850D01*
X193589000Y-111292149D01*
X193624089Y-111513689D01*
X193693399Y-111727007D01*
X193693400Y-111727010D01*
X193795233Y-111926866D01*
X193845032Y-111995410D01*
X193845034Y-111995411D01*
X194439745Y-111400700D01*
X194468994Y-111471312D01*
X194536298Y-111572040D01*
X194621960Y-111657702D01*
X194722688Y-111725006D01*
X194793299Y-111754254D01*
X194289371Y-112258181D01*
X194228048Y-112291666D01*
X194201691Y-112294500D01*
X194041130Y-112294500D01*
X194041123Y-112294501D01*
X193981516Y-112300908D01*
X193846671Y-112351202D01*
X193846669Y-112351204D01*
X193814525Y-112375267D01*
X193749061Y-112399684D01*
X193740214Y-112400000D01*
X193133484Y-112400000D01*
X193066445Y-112380315D01*
X193020690Y-112327511D01*
X193009485Y-112276517D01*
X193008314Y-111995410D01*
X193000780Y-110187319D01*
X193020185Y-110120200D01*
X193072798Y-110074225D01*
X193141914Y-110063994D01*
X193163619Y-110069044D01*
G37*
%TD.AperFunction*%
%TD*%
%TA.AperFunction,Conductor*%
%TO.N,PhaseB*%
G36*
X198279465Y-102606201D02*
G01*
X198346432Y-102626126D01*
X198383962Y-102664148D01*
X200000215Y-105232029D01*
X200019266Y-105299251D01*
X199998950Y-105366102D01*
X199982201Y-105386508D01*
X197797781Y-107533904D01*
X197790999Y-107540095D01*
X196629137Y-108524259D01*
X196565259Y-108552569D01*
X196496217Y-108541851D01*
X196443929Y-108495506D01*
X196426517Y-108449039D01*
X196403910Y-108306310D01*
X196334600Y-108092992D01*
X196334599Y-108092989D01*
X196232768Y-107893136D01*
X196182964Y-107824588D01*
X196182964Y-107824587D01*
X195588253Y-108419298D01*
X195559006Y-108348688D01*
X195491702Y-108247960D01*
X195406040Y-108162298D01*
X195305312Y-108094994D01*
X195234700Y-108065745D01*
X195829411Y-107471034D01*
X195829410Y-107471032D01*
X195760866Y-107421233D01*
X195561010Y-107319400D01*
X195561007Y-107319399D01*
X195347689Y-107250089D01*
X195126149Y-107215000D01*
X194901851Y-107215000D01*
X194680310Y-107250089D01*
X194466992Y-107319399D01*
X194466989Y-107319400D01*
X194267140Y-107421229D01*
X194198588Y-107471034D01*
X194793299Y-108065745D01*
X194722688Y-108094994D01*
X194621960Y-108162298D01*
X194536298Y-108247960D01*
X194468994Y-108348688D01*
X194439745Y-108419299D01*
X193845034Y-107824588D01*
X193795229Y-107893140D01*
X193693400Y-108092989D01*
X193693399Y-108092992D01*
X193624089Y-108306310D01*
X193589000Y-108527850D01*
X193589000Y-108752149D01*
X193624089Y-108973689D01*
X193693399Y-109187007D01*
X193693400Y-109187010D01*
X193795233Y-109386866D01*
X193855478Y-109469787D01*
X193878958Y-109535593D01*
X193863132Y-109603647D01*
X193813027Y-109652342D01*
X193744549Y-109666217D01*
X193733473Y-109664761D01*
X193303979Y-109588470D01*
X193241416Y-109557364D01*
X193205601Y-109497372D01*
X193201682Y-109464410D01*
X193239978Y-107061359D01*
X193240051Y-107058673D01*
X193409673Y-102708355D01*
X193431955Y-102642136D01*
X193486501Y-102598473D01*
X193534023Y-102589190D01*
X198279465Y-102606201D01*
G37*
%TD.AperFunction*%
%TD*%
%TA.AperFunction,Conductor*%
%TO.N,PhaseA*%
G36*
X200059632Y-67676683D02*
G01*
X200126221Y-67697841D01*
X200170800Y-67751642D01*
X200179216Y-67821003D01*
X200178071Y-67826976D01*
X199007295Y-73216417D01*
X198976457Y-73275037D01*
X197122708Y-75246484D01*
X197093893Y-75269203D01*
X196760001Y-75459998D01*
X196760000Y-75460000D01*
X196646150Y-75756609D01*
X196603749Y-75812143D01*
X196538056Y-75835937D01*
X196469927Y-75820437D01*
X196420993Y-75770564D01*
X196407912Y-75731572D01*
X196403910Y-75706310D01*
X196334600Y-75492992D01*
X196334599Y-75492989D01*
X196232768Y-75293136D01*
X196182964Y-75224588D01*
X196182964Y-75224587D01*
X195588253Y-75819298D01*
X195559006Y-75748688D01*
X195491702Y-75647960D01*
X195406040Y-75562298D01*
X195305312Y-75494994D01*
X195234700Y-75465745D01*
X195829411Y-74871034D01*
X195829410Y-74871032D01*
X195760866Y-74821233D01*
X195561010Y-74719400D01*
X195561007Y-74719399D01*
X195347689Y-74650089D01*
X195126149Y-74615000D01*
X194901851Y-74615000D01*
X194680310Y-74650089D01*
X194466992Y-74719399D01*
X194466989Y-74719400D01*
X194267140Y-74821229D01*
X194198588Y-74871034D01*
X194793299Y-75465745D01*
X194722688Y-75494994D01*
X194621960Y-75562298D01*
X194536298Y-75647960D01*
X194468994Y-75748688D01*
X194439745Y-75819299D01*
X193845034Y-75224588D01*
X193795227Y-75293143D01*
X193741920Y-75397763D01*
X193693946Y-75448558D01*
X193626125Y-75465353D01*
X193559990Y-75442815D01*
X193516539Y-75388100D01*
X193507487Y-75345018D01*
X193505315Y-75269203D01*
X193430044Y-72641536D01*
X193429994Y-72638470D01*
X193410498Y-67657261D01*
X193429920Y-67590145D01*
X193482544Y-67544184D01*
X193537229Y-67532806D01*
X200059632Y-67676683D01*
G37*
%TD.AperFunction*%
%TD*%
%TA.AperFunction,Conductor*%
%TO.N,PhaseC*%
G36*
X235148292Y-114839804D02*
G01*
X235194169Y-114892502D01*
X235205367Y-114938672D01*
X235554240Y-122652657D01*
X235537605Y-122720517D01*
X235486922Y-122768611D01*
X235432546Y-122782240D01*
X230578270Y-122867569D01*
X230510895Y-122849066D01*
X230464219Y-122797074D01*
X230452607Y-122732286D01*
X230700000Y-120030000D01*
X230875865Y-114949430D01*
X230897857Y-114883115D01*
X230952212Y-114839214D01*
X230999502Y-114829723D01*
X231863068Y-114827724D01*
X231930152Y-114847254D01*
X231976029Y-114899952D01*
X231986132Y-114969087D01*
X231957255Y-115032710D01*
X231938840Y-115050100D01*
X231858953Y-115111398D01*
X231858953Y-115111400D01*
X232766511Y-116018958D01*
X232706110Y-116043978D01*
X232599649Y-116115112D01*
X232509112Y-116205649D01*
X232437978Y-116312110D01*
X232412958Y-116372511D01*
X231505400Y-115464953D01*
X231505399Y-115464953D01*
X231430823Y-115562143D01*
X231306285Y-115777847D01*
X231306283Y-115777851D01*
X231210973Y-116007950D01*
X231146508Y-116248536D01*
X231114000Y-116495466D01*
X231114000Y-116744533D01*
X231146508Y-116991463D01*
X231210973Y-117232049D01*
X231306283Y-117462148D01*
X231306288Y-117462159D01*
X231430813Y-117677841D01*
X231430819Y-117677849D01*
X231505400Y-117775045D01*
X232412958Y-116867487D01*
X232437978Y-116927890D01*
X232509112Y-117034351D01*
X232599649Y-117124888D01*
X232706110Y-117196022D01*
X232766511Y-117221041D01*
X231858953Y-118128598D01*
X231956150Y-118203180D01*
X231956158Y-118203186D01*
X232171840Y-118327711D01*
X232171851Y-118327716D01*
X232401950Y-118423026D01*
X232642536Y-118487491D01*
X232889466Y-118520000D01*
X233138534Y-118520000D01*
X233385463Y-118487491D01*
X233626049Y-118423026D01*
X233856148Y-118327716D01*
X233856159Y-118327711D01*
X234071855Y-118203178D01*
X234169045Y-118128600D01*
X234169045Y-118128597D01*
X233261488Y-117221041D01*
X233321890Y-117196022D01*
X233428351Y-117124888D01*
X233518888Y-117034351D01*
X233590022Y-116927890D01*
X233615041Y-116867489D01*
X234522597Y-117775045D01*
X234522600Y-117775045D01*
X234597178Y-117677855D01*
X234721711Y-117462159D01*
X234721716Y-117462148D01*
X234817026Y-117232049D01*
X234881491Y-116991463D01*
X234914000Y-116744533D01*
X234914000Y-116495466D01*
X234881491Y-116248536D01*
X234817026Y-116007950D01*
X234721716Y-115777851D01*
X234721711Y-115777840D01*
X234597186Y-115562158D01*
X234597180Y-115562150D01*
X234522598Y-115464953D01*
X233615041Y-116372510D01*
X233590022Y-116312110D01*
X233518888Y-116205649D01*
X233428351Y-116115112D01*
X233321890Y-116043978D01*
X233261487Y-116018957D01*
X234169045Y-115111400D01*
X234082236Y-115044789D01*
X234041034Y-114988361D01*
X234036879Y-114918615D01*
X234071091Y-114857694D01*
X234132809Y-114824942D01*
X234157432Y-114822413D01*
X235081210Y-114820274D01*
X235148292Y-114839804D01*
G37*
%TD.AperFunction*%
%TD*%
%TA.AperFunction,Conductor*%
%TO.N,PhaseA*%
G36*
X231063792Y-104983528D02*
G01*
X231130762Y-105003433D01*
X231176342Y-105056389D01*
X231186056Y-105125580D01*
X231181083Y-105146530D01*
X231124494Y-105317303D01*
X231124493Y-105317310D01*
X231114000Y-105420014D01*
X231114000Y-106370000D01*
X232413999Y-106370000D01*
X232388979Y-106430402D01*
X232364000Y-106555981D01*
X232364000Y-106684019D01*
X232388979Y-106809598D01*
X232413999Y-106870000D01*
X231114000Y-106870000D01*
X231114000Y-107819985D01*
X231124493Y-107922689D01*
X231124494Y-107922696D01*
X231179641Y-108089118D01*
X231179643Y-108089123D01*
X231271684Y-108238344D01*
X231395655Y-108362315D01*
X231544876Y-108454356D01*
X231544881Y-108454358D01*
X231711303Y-108509505D01*
X231711310Y-108509506D01*
X231814014Y-108519999D01*
X231814027Y-108520000D01*
X232764000Y-108520000D01*
X232764000Y-107220001D01*
X232824402Y-107245021D01*
X232949981Y-107270000D01*
X233078019Y-107270000D01*
X233203598Y-107245021D01*
X233264000Y-107220001D01*
X233264000Y-108520000D01*
X234213973Y-108520000D01*
X234213985Y-108519999D01*
X234316689Y-108509506D01*
X234316696Y-108509505D01*
X234483118Y-108454358D01*
X234483123Y-108454356D01*
X234632344Y-108362315D01*
X234756315Y-108238344D01*
X234848356Y-108089123D01*
X234848358Y-108089118D01*
X234903505Y-107922696D01*
X234903506Y-107922689D01*
X234913999Y-107819985D01*
X234914000Y-107819972D01*
X234914000Y-106870000D01*
X233614001Y-106870000D01*
X233639021Y-106809598D01*
X233664000Y-106684019D01*
X233664000Y-106555981D01*
X233639021Y-106430402D01*
X233614001Y-106370000D01*
X234914000Y-106370000D01*
X234914000Y-105420027D01*
X234913999Y-105420014D01*
X234903506Y-105317310D01*
X234903505Y-105317303D01*
X234851209Y-105159484D01*
X234848807Y-105089655D01*
X234884539Y-105029614D01*
X234947059Y-104998421D01*
X234969314Y-104996481D01*
X235906114Y-104999589D01*
X235973088Y-105019496D01*
X236018668Y-105072451D01*
X236029703Y-105123885D01*
X236020290Y-109058525D01*
X236000445Y-109125517D01*
X235947531Y-109171145D01*
X235898544Y-109182208D01*
X235471235Y-109189977D01*
X235468738Y-109189997D01*
X230387241Y-109180033D01*
X230353419Y-109175262D01*
X230177908Y-109125116D01*
X230118855Y-109087772D01*
X230089367Y-109024430D01*
X230088003Y-109008595D01*
X230077101Y-108509506D01*
X230002777Y-105107127D01*
X230020992Y-105039675D01*
X230072784Y-104992778D01*
X230127154Y-104980421D01*
X231063792Y-104983528D01*
G37*
%TD.AperFunction*%
%TD*%
M02*
